<svg width="32" height="41" viewBox="0 0 32 41" fill="none" xmlns="http://www.w3.org/2000/svg">
<path d="M31.9662 2.81877C32.0524 2.56252 31.9662 2.30627 31.7939 2.05001L30.243 0.256252C30.0705 0.0855149 29.812 0 29.5535 0L25.6763 0.170737H25.5041C25.4178 0.170737 25.3318 0.256252 25.2456 0.341474L14.3893 9.31028C14.303 9.39551 14.217 9.48102 14.217 9.56654C14.217 9.65205 14.1308 9.65205 14.1308 9.73727L13.2691 13.4955C13.1828 13.7518 13.2691 14.008 13.4413 14.2643L14.9922 16.0581C15.1644 16.2288 15.4229 16.3998 15.6814 16.3998H15.7677L19.5587 16.2291H19.6449C19.8171 16.2291 20.0756 16.1436 20.1619 16.0583L22.2297 14.3501C22.7467 15.4606 23.6084 16.2294 24.7283 16.6564C25.159 17.5106 25.3315 18.4501 25.3315 19.3896C25.3315 23.0627 22.316 26.0522 18.611 26.0522C15.9399 26.0522 13.6135 24.5147 12.4936 22.2084L15.0785 22.9771H15.3369C15.5092 22.9771 15.5954 22.9771 15.7677 22.8916C15.9399 22.8061 16.1124 22.6354 16.1984 22.3791L17.3186 18.8771C17.4048 18.6209 17.3186 18.4501 17.2323 18.1939C17.146 18.0231 16.9738 17.8521 16.7153 17.7669L5.08357 14.2649C4.82508 14.1794 4.65286 14.2649 4.39438 14.3504C4.04992 14.5206 3.8777 14.6916 3.8777 14.9478L2.84376 18.4498C2.67154 18.8768 2.93002 19.3893 3.44699 19.4749L6.46253 20.4143C6.80728 24.3436 8.96111 27.6749 12.0629 29.6394V35.4477H0.86171C0.344743 35.4477 0 35.7894 0 36.3019L0.000288486 40.1457C0.000288486 40.6582 0.345032 41 0.861999 41H29.8986C30.4155 41 30.7603 40.6582 30.7603 40.1457V36.3019C30.7603 35.7894 30.4155 35.4477 29.8986 35.4477H22.661V30.8351C27.4 29.1269 30.7604 24.6851 30.7604 19.4744C30.7604 18.0224 30.5019 16.5701 29.8987 15.1181C30.4157 14.3494 30.7604 13.4951 30.7604 12.5556C30.7604 11.0181 29.985 9.65133 28.7788 8.88258L30.8467 7.17433C31.0189 7.08882 31.1052 6.91808 31.1052 6.74734V6.66183V6.57631L31.9662 2.81877ZM15.9402 14.692L14.9925 13.4963L15.4232 11.788L17.7496 14.5213L15.9402 14.692ZM7.41021 18.9628L4.65315 18.1085L5.25637 16.2292L15.2508 19.2187L14.6476 21.098L11.2873 20.073L7.41021 18.9628ZM28.9508 37.1566V39.2922H1.63716V37.1566H28.9508ZM13.7002 35.4484V30.5796C13.9587 30.6651 16.802 32.0316 20.8515 31.3484V35.5339L13.7002 35.5336V35.4484ZM21.0237 29.4691C20.8515 29.5546 16.8017 30.5796 13.2692 28.4441H13.183C10.5119 26.9066 8.61651 24.1733 8.09955 21.0128L10.2537 21.696C11.2014 25.2836 14.5616 27.9316 18.4387 27.9316C23.0914 27.9316 26.8823 24.1733 26.8823 19.5609C26.8823 18.7067 26.7101 17.8527 26.5376 17.0839C27.313 17.0839 28.2607 16.5714 28.4332 16.4859C28.7779 17.5109 28.9502 18.5359 28.9502 19.5609C28.9505 24.2587 25.5903 28.3584 21.0237 29.4691ZM28.9511 12.5565C28.9511 13.3252 28.6926 13.9233 28.1756 14.4358C28.1756 14.4358 27.1417 15.5463 25.5045 15.2045C24.2983 14.9483 23.4366 13.8377 23.4366 12.5565C23.4366 11.7877 24.0399 9.39594 26.8832 9.90845C28.0893 10.1647 28.9511 11.2752 28.9511 12.5565ZM26.8832 8.11469C22.9197 7.6877 21.5413 11.3604 21.7135 12.3855L19.6456 14.0937L16.1991 9.99367L25.5909 2.22046L29.0375 6.32049L26.8832 8.11469ZM29.7265 4.61268L27.4002 1.87942L29.1233 1.79391L30.071 2.98965L29.7265 4.61268Z" fill="black"/>
</svg>
