<svg width="37" height="40" viewBox="0 0 37 40" fill="none" xmlns="http://www.w3.org/2000/svg">
<path d="M32.3277 36.0175H30.3059L30.3062 10.1806C30.3062 9.66383 29.9018 9.22096 29.3506 9.22096L23.5059 9.2207V10.1435L24.3513 11.1401H28.3947V36.0174H24.2411V28.2294C24.2411 27.7126 23.8367 27.2698 23.2854 27.2698L12.9198 27.2695C12.4052 27.2695 11.9641 27.7124 11.9641 28.2291V36.0171L7.81045 36.0174V11.1401H11.8539L12.6993 10.1805V9.25775H6.85488C6.34028 9.25775 5.89924 9.70058 5.89924 10.2173V36.0174H3.87751C3.36291 36.0174 2.92188 36.4602 2.92188 36.9769C2.92188 37.4937 3.32622 37.9365 3.87751 37.9365H32.2912C32.8058 37.9365 33.2468 37.4937 33.2468 36.9769C33.2468 36.4234 32.8425 36.0174 32.3279 36.0174L32.3277 36.0175ZM22.3296 36.0175H19.0215V29.1891H22.3296V36.0175ZM13.8753 29.1891H17.1834V36.0175H13.8753V29.1891Z" fill="black"/>
<path d="M14.4574 11.3851L12.9646 13.1135C11.1078 15.2465 10.6708 18.1887 11.836 20.7629C13.0012 23.3371 15.4768 24.9553 18.2804 24.9553C21.0839 24.9553 23.5595 23.3371 24.7247 20.7629C25.8899 18.1887 25.4528 15.2465 23.5961 13.1135L22.1033 11.3851C21.8849 11.1275 21.7757 10.7966 21.7757 10.4657V4.83897H22.2491C22.7588 4.83897 23.1956 4.43442 23.1956 3.88286C23.1956 3.3313 22.7951 2.92676 22.2491 2.92676H14.3484C13.8387 2.92676 13.4019 3.3313 13.4019 3.88286C13.4019 4.43442 13.8024 4.83897 14.3484 4.83897H14.8218V10.4657C14.7853 10.7968 14.6761 11.1278 14.4576 11.3851H14.4574ZM15.841 12.6356C16.3507 12.0472 16.642 11.275 16.642 10.4659V4.83897H19.8823V6.1629H18.6809C18.1711 6.1629 17.7343 6.56745 17.7343 7.119C17.7343 7.63385 18.1348 8.07511 18.6809 8.07511H19.8823V9.3993H18.6809C18.1711 9.3993 17.7343 9.84053 17.7343 10.3554C17.7343 10.8703 18.1348 11.3115 18.6809 11.3115H19.9916C20.1008 11.8264 20.3557 12.2676 20.6834 12.6722L22.1762 14.4006C22.3217 14.5476 22.4312 14.7315 22.5767 14.9155C22.5038 14.9521 22.3946 14.9891 22.3217 15.0258C20.7197 15.6142 19.0814 15.2464 17.3702 14.8788C16.3871 14.6582 15.3676 14.4375 14.3845 14.4006L15.841 12.6356Z" fill="black"/>
</svg>
