<svg width="34" height="33" viewBox="0 0 34 33" fill="none" xmlns="http://www.w3.org/2000/svg">
<path d="M10.0114 0.250015C4.7857 0.250015 0.534912 4.50474 0.534912 9.73183V23.2735C0.534912 28.4992 4.78964 32.75 10.0167 32.75H23.5584C28.7841 32.75 33.0349 28.4953 33.0349 23.2682V9.72654C33.0349 4.50081 28.7802 0.250015 23.5531 0.250015H10.0114ZM26.2641 5.66668C27.0116 5.66668 27.6182 6.27335 27.6182 7.02085C27.6182 7.76835 27.0116 8.37502 26.2641 8.37502C25.5166 8.37502 24.9099 7.76835 24.9099 7.02085C24.9099 6.27335 25.5166 5.66668 26.2641 5.66668ZM16.7849 8.37502C21.2658 8.37502 24.9099 12.0191 24.9099 16.5C24.9099 20.981 21.2658 24.625 16.7849 24.625C12.304 24.625 8.65991 20.981 8.65991 16.5C8.65991 12.0191 12.304 8.37502 16.7849 8.37502ZM16.7849 11.0833C15.3483 11.0833 13.9706 11.654 12.9548 12.6699C11.9389 13.6857 11.3682 15.0634 11.3682 16.5C11.3682 17.9366 11.9389 19.3144 12.9548 20.3302C13.9706 21.346 15.3483 21.9167 16.7849 21.9167C18.2215 21.9167 19.5993 21.346 20.6151 20.3302C21.6309 19.3144 22.2016 17.9366 22.2016 16.5C22.2016 15.0634 21.6309 13.6857 20.6151 12.6699C19.5993 11.654 18.2215 11.0833 16.7849 11.0833Z" fill="white"/>
</svg>
