<svg width="33" height="33" viewBox="0 0 33 33" fill="none" xmlns="http://www.w3.org/2000/svg">
<path d="M16.7306 0.250015C7.77048 0.250015 0.480591 7.5392 0.480591 16.5C0.480591 25.4608 7.77048 32.75 16.7306 32.75C25.6907 32.75 32.9806 25.4608 32.9806 16.5C32.9806 7.5392 25.6907 0.250015 16.7306 0.250015ZM11.7849 23.5652H8.95885V12.9674H11.7849V23.5652ZM10.3719 10.8478C9.59119 10.8478 8.95885 10.2155 8.95885 9.4348C8.95885 8.65409 9.59119 8.02175 10.3719 8.02175C11.1526 8.02175 11.7849 8.65409 11.7849 9.4348C11.7849 10.2155 11.1526 10.8478 10.3719 10.8478ZM25.2089 23.5652H22.3828V20.0326V18.2663C22.3828 16.9063 21.27 15.7935 19.9099 15.7935C18.5499 15.7935 17.4371 16.9063 17.4371 18.2663V23.5652H14.611V12.9674H17.4371V14.2505C18.2623 13.4577 19.3815 12.9674 20.6165 12.9674C23.1529 12.9674 25.2089 15.0234 25.2089 17.5598V23.5652Z" fill="white"/>
</svg>
