<svg width="282" height="58" viewBox="0 0 282 58" fill="none" xmlns="http://www.w3.org/2000/svg">
<g clip-path="url(#clip0_5_337)">
<path d="M2.34815 54.1124C2.27249 54.0319 2.18057 53.9683 2.07842 53.9256C1.97627 53.8829 1.8662 53.8621 1.75541 53.8646C1.64292 53.8616 1.53104 53.8821 1.42702 53.9247C1.323 53.9674 1.22916 54.0314 1.1516 54.1124C0.974328 54.3162 0.924471 54.5309 0.924471 55.445C0.924471 56.3591 0.974328 56.5463 1.1516 56.7665C1.22801 56.8494 1.3215 56.915 1.4257 56.9587C1.52991 57.0024 1.64236 57.0233 1.75541 57.0198C1.86289 57.0223 1.96875 56.9936 2.06009 56.9373L1.64462 56.5353L2.14319 56.0507L2.49218 56.4031C2.57465 56.0927 2.6046 55.7707 2.58082 55.4505C2.58082 54.5364 2.52542 54.3492 2.34815 54.1179M3.13478 58.011L2.71377 57.5925C2.42654 57.7698 2.09342 57.8598 1.75541 57.8513C1.51284 57.8596 1.27121 57.8174 1.04605 57.7273C0.820898 57.6372 0.617202 57.5013 0.448064 57.3282C-0.0338836 56.8491 -0.0172648 56.26 -0.0172648 55.445C-0.0172648 54.63 -0.0172647 54.0353 0.448064 53.5563C0.615769 53.3863 0.816975 53.2526 1.03908 53.1635C1.26118 53.0745 1.49939 53.032 1.7388 53.0386C1.97648 53.0325 2.21287 53.0753 2.4331 53.1644C2.65333 53.2534 2.85263 53.3869 3.01845 53.5563C3.5004 54.0353 3.49486 54.6245 3.49486 55.445C3.56544 56.0124 3.46316 56.5879 3.20126 57.0969L3.60565 57.5044L3.13478 58.011Z" fill="black"/>
<path d="M6.12101 53.9036H5.24575V55.1481H6.12101C6.28703 55.1481 6.44625 55.0826 6.56364 54.9659C6.68104 54.8492 6.74699 54.6909 6.74699 54.5259C6.74699 54.3608 6.68104 54.2026 6.56364 54.0859C6.44625 53.9692 6.28703 53.9036 6.12101 53.9036ZM6.84116 57.8077L5.9105 55.919H5.24575V57.8077H4.32617V53.0777H6.19303C6.39179 53.0639 6.59126 53.0913 6.77883 53.1582C6.96639 53.225 7.13797 53.3298 7.28271 53.4659C7.42745 53.602 7.5422 53.7665 7.61972 53.9489C7.69723 54.1314 7.73582 54.3278 7.73304 54.5259C7.73977 54.7982 7.65911 55.0656 7.50274 55.2894C7.34638 55.5131 7.12243 55.6816 6.86332 55.7703L7.92693 57.8077H6.84116Z" fill="black"/>
<path d="M10.8908 54.1948C10.8057 54.0951 10.6982 54.0166 10.5769 53.9659C10.4556 53.9152 10.324 53.8937 10.1928 53.903H9.49479V56.9811H10.1928C10.324 56.9905 10.4556 56.9689 10.5769 56.9182C10.6982 56.8675 10.8057 56.7891 10.8908 56.6893C11.0625 56.48 11.0902 56.1386 11.0902 55.4228C11.0902 54.707 11.0625 54.4096 10.8908 54.1948ZM11.5278 57.3556C11.3594 57.5092 11.1621 57.6281 10.9472 57.7056C10.7323 57.7831 10.5042 57.8176 10.2759 57.8071H8.55859V53.077H10.2759C10.5042 53.0666 10.7323 53.1011 10.9472 53.1785C11.1621 53.256 11.3594 53.375 11.5278 53.5286C12.0818 54.0792 12.0098 54.7125 12.0098 55.4228C12.0098 56.1331 12.0652 56.8214 11.5278 57.3556Z" fill="black"/>
<path d="M12.8457 53.0771H13.7709V57.8072H12.8457V53.0771Z" fill="black"/>
<path d="M17.322 57.8459C17.101 57.8479 16.8819 57.806 16.6774 57.7228C16.4729 57.6396 16.2871 57.5167 16.131 57.3613C15.6989 56.9263 15.6934 56.5023 15.6934 55.4395C15.6934 54.3768 15.6934 53.9528 16.131 53.5233C16.2871 53.3679 16.4729 53.245 16.6774 53.1617C16.8819 53.0785 17.101 53.0367 17.322 53.0387C17.7157 53.0277 18.0994 53.1634 18.3976 53.4191C18.6959 53.6748 18.8872 54.0321 18.934 54.4208H18.5684C18.5255 54.1236 18.3754 53.8521 18.1462 53.6566C17.9169 53.4611 17.624 53.355 17.322 53.3581C16.9845 53.3556 16.6597 53.4863 16.4191 53.7215C16.0811 54.0629 16.0534 54.4319 16.0534 55.4395C16.0534 56.4472 16.0534 56.8217 16.4191 57.1631C16.6597 57.3983 16.9845 57.529 17.322 57.5265C17.6253 57.5299 17.9196 57.4242 18.1507 57.2289C18.3818 57.0336 18.5341 56.7619 18.5795 56.4638H18.934C18.886 56.852 18.6943 57.2086 18.3964 57.4641C18.0984 57.7195 17.7154 57.8556 17.322 57.8459Z" fill="black"/>
<path d="M22.4011 53.7219C22.1601 53.4888 21.8371 53.3584 21.5009 53.3584C21.1646 53.3584 20.8417 53.4888 20.6007 53.7219C20.2572 54.0633 20.2351 54.4322 20.2351 55.4454C20.2351 56.4586 20.2351 56.8221 20.6007 57.1635C20.8417 57.3966 21.1646 57.527 21.5009 57.527C21.8371 57.527 22.1601 57.3966 22.4011 57.1635C22.7445 56.8221 22.7722 56.4531 22.7722 55.4454C22.7722 54.4377 22.7722 54.0633 22.4011 53.7219ZM22.6891 57.3617C22.5336 57.5165 22.3488 57.639 22.1453 57.7222C21.9418 57.8053 21.7237 57.8475 21.5036 57.8463C21.2827 57.8483 21.0635 57.8064 20.859 57.7232C20.6545 57.64 20.4688 57.5171 20.3126 57.3617C19.8805 56.9267 19.875 56.5027 19.875 55.4454C19.875 54.3882 19.875 53.9587 20.3126 53.5237C20.4681 53.3689 20.653 53.2464 20.8565 53.1632C21.06 53.08 21.2781 53.0378 21.4981 53.0391C21.7181 53.0378 21.9362 53.08 22.1397 53.1632C22.3432 53.2464 22.5281 53.3689 22.6836 53.5237C23.1212 53.9587 23.1268 54.3717 23.1268 55.4454C23.1268 56.5192 23.1268 56.9267 22.6836 57.3617" fill="black"/>
<path d="M25.8579 57.8458C25.6445 57.8581 25.4309 57.8262 25.2307 57.752C25.0304 57.6778 24.8479 57.563 24.6947 57.4148C24.5415 57.2667 24.421 57.0885 24.3409 56.8916C24.2607 56.6946 24.2227 56.4833 24.2292 56.2709V53.0771H24.5893V56.2269C24.5893 56.3925 24.6221 56.5564 24.6859 56.7094C24.7496 56.8624 24.8431 57.0014 24.9609 57.1185C25.0787 57.2356 25.2185 57.3285 25.3724 57.3919C25.5263 57.4552 25.6913 57.4879 25.8579 57.4879C26.0245 57.4879 26.1894 57.4552 26.3433 57.3919C26.4973 57.3285 26.6371 57.2356 26.7549 57.1185C26.8727 57.0014 26.9661 56.8624 27.0299 56.7094C27.0936 56.5564 27.1265 56.3925 27.1265 56.2269V53.0771H27.4865V56.2709C27.493 56.4833 27.455 56.6946 27.3749 56.8916C27.2947 57.0885 27.1742 57.2667 27.0211 57.4148C26.8679 57.563 26.6853 57.6778 26.4851 57.752C26.2848 57.8262 26.0712 57.8581 25.8579 57.8458Z" fill="black"/>
<path d="M29.1316 53.6939V57.8017H28.7715V53.0771H29.1316L31.8737 57.174V53.0771H32.2337V57.8017H31.8737L29.1316 53.6939Z" fill="black"/>
<path d="M35.0271 57.8459C34.8071 57.8472 34.589 57.805 34.3855 57.7218C34.182 57.6386 33.9971 57.5161 33.8416 57.3613C33.404 56.9263 33.3984 56.5023 33.3984 55.4396C33.3984 54.3768 33.3984 53.9528 33.8416 53.5233C33.9971 53.3685 34.182 53.246 34.3855 53.1628C34.589 53.0796 34.8071 53.0375 35.0271 53.0387C35.4214 53.0276 35.8058 53.163 36.1049 53.4187C36.4041 53.6743 36.5965 54.0317 36.6447 54.4209H36.279C36.2413 54.192 36.141 53.9778 35.9892 53.8017C35.8374 53.6256 35.6398 53.4943 35.4181 53.4222C35.1963 53.35 34.9589 53.3398 34.7317 53.3926C34.5045 53.4454 34.2963 53.5591 34.1297 53.7215C33.7862 54.0629 33.7585 54.4319 33.7585 55.4396C33.7585 56.4472 33.7862 56.8217 34.1297 57.1631C34.2967 57.3266 34.5058 57.4414 34.734 57.4948C34.9622 57.5483 35.2008 57.5384 35.4238 57.4662C35.6467 57.3941 35.8454 57.2624 35.9982 57.0856C36.151 56.9088 36.252 56.6937 36.2901 56.4638H36.6447C36.5942 56.852 36.401 57.2079 36.1024 57.463C35.8038 57.7182 35.4208 57.8546 35.0271 57.8459Z" fill="black"/>
<path d="M37.7689 53.0771H38.1179V57.8072H37.7578L37.7689 53.0771Z" fill="black"/>
<path d="M39.4802 53.0771H39.8403V57.4824H42.3608V57.8017H39.4802V53.0771Z" fill="black"/>
<path d="M4.88041 28.3633H0V49.4532H21.2168V44.624H4.88041V28.3633Z" fill="black"/>
<path d="M44.6437 4.8292V21.0954H49.5019V0H28.2852V4.8292H44.6437Z" fill="#6A1840"/>
<path d="M21.2168 4.8292V0H0V21.0954H4.88041V4.8292H21.2168Z" fill="#C8C9C7"/>
<path d="M28.5501 24.9228C29.104 24.9228 29.4586 25.4734 29.4586 26.2664C29.4586 26.3691 29.4586 26.4793 29.4586 26.5967H26.855C27.0987 25.7212 27.8853 24.9448 28.5501 24.9448M32.3226 24.9448C32.7491 24.9448 32.9873 25.2642 32.9873 25.7818C32.9873 26.3875 32.7547 26.6959 32.3004 26.6959C31.8462 26.6959 31.6135 26.3655 31.6135 25.8424C31.6135 25.3192 31.8572 24.9448 32.3226 24.9448ZM24.966 26.9547H32.3004C32.4527 26.955 32.6034 26.9242 32.7431 26.8641C32.8828 26.804 33.0086 26.7159 33.1126 26.6053C33.2165 26.4948 33.2965 26.3641 33.3473 26.2214C33.3982 26.0788 33.419 25.9273 33.4083 25.7763C33.4252 25.624 33.4088 25.4699 33.3602 25.3245C33.3116 25.1792 33.232 25.046 33.1268 24.934C33.0215 24.8221 32.8932 24.7341 32.7506 24.6761C32.6079 24.6181 32.4544 24.5914 32.3004 24.5979C32.1477 24.5975 31.9965 24.6284 31.8563 24.6889C31.7162 24.7493 31.5901 24.8379 31.4861 24.9491C31.382 25.0603 31.3022 25.1916 31.2517 25.3349C31.2012 25.4782 31.181 25.6304 31.1925 25.7818C31.1853 26.0757 31.2834 26.3626 31.4695 26.5912H29.8076C29.8076 26.5086 29.8076 26.4316 29.8076 26.349C29.8076 25.1816 29.3921 24.5869 28.5501 24.5869C28.155 24.6356 27.7822 24.7958 27.4759 25.0485C27.1696 25.3013 26.9426 25.636 26.8217 26.0131L26.9048 23.5957H26.517V26.5967H25.0047V24.5979H24.6336V26.5802C24.6336 27.1914 24.3898 27.4613 23.9023 27.4613V27.8082C24.1548 27.8234 24.4038 27.7443 24.6006 27.5864C24.7974 27.4285 24.9277 27.2032 24.966 26.9547Z" fill="black"/>
<path d="M32.1465 23.7773H31.7754V24.2179H32.1465V23.7773Z" fill="black"/>
<path d="M32.8321 23.7773H32.4609V24.2179H32.8321V23.7773Z" fill="black"/>
<path d="M47.9771 25.6493C48.0354 25.5575 48.1179 25.4833 48.2155 25.4348C48.3131 25.3863 48.4223 25.3652 48.5311 25.374C48.6303 25.3673 48.7294 25.3874 48.8181 25.4319C48.9068 25.4765 48.9818 25.544 49.0352 25.6273C49.1288 25.7955 49.1748 25.9858 49.1682 26.1779C49.1682 26.7726 48.9521 27.07 48.509 27.07C48.4036 27.0802 48.2976 27.0602 48.2034 27.0124C48.1091 26.9645 48.0306 26.8909 47.9771 26.8001C47.8741 26.6351 47.8221 26.4436 47.8276 26.2495C47.8165 26.0391 47.8685 25.8302 47.9771 25.6493ZM35.79 27.8188C36.089 27.814 36.379 27.7156 36.6186 27.5377C36.8583 27.3598 37.0355 27.1113 37.125 26.8277C37.1321 26.8696 37.1321 26.9124 37.125 26.9543H47.5894C47.6854 27.0857 47.8094 27.1944 47.9526 27.2726C48.0958 27.3507 48.2546 27.3964 48.4177 27.4064C48.5807 27.4164 48.744 27.3905 48.8958 27.3304C49.0475 27.2703 49.1841 27.1776 49.2956 27.0589C49.4712 26.8189 49.5658 26.5298 49.5658 26.233C49.5658 25.9362 49.4712 25.647 49.2956 25.407C49.1954 25.2931 49.0706 25.2032 48.9306 25.1441C48.7905 25.085 48.6388 25.0581 48.4868 25.0656C48.3354 25.0586 48.1843 25.0852 48.0445 25.1432C47.9046 25.2013 47.7794 25.2895 47.678 25.4015C47.4771 25.6375 47.3741 25.9407 47.3899 26.2495C47.389 26.3706 47.4058 26.4911 47.4398 26.6074H46.1602V26.4477C46.1768 26.2156 46.1438 25.9826 46.0635 25.764C45.9832 25.5454 45.8573 25.3461 45.6942 25.1792C45.531 25.0123 45.3342 24.8816 45.1166 24.7956C44.8991 24.7096 44.6657 24.6702 44.4318 24.6801C44.1873 24.6632 43.9422 24.7043 43.7168 24.8C43.4914 24.8957 43.2922 25.0434 43.1355 25.2308L43.4568 25.5502C43.5576 25.3839 43.7023 25.2483 43.8752 25.1581C44.048 25.0678 44.2424 25.0263 44.4373 25.0381C44.6188 25.0255 44.8009 25.0535 44.9701 25.12C45.1393 25.1865 45.2913 25.2898 45.4151 25.4224C45.5389 25.5549 45.6313 25.7133 45.6854 25.886C45.7396 26.0587 45.7541 26.2412 45.7281 26.4202C45.7281 26.4753 45.7281 26.5413 45.7281 26.6074H41.8503C41.9224 26.4329 41.9564 26.2453 41.95 26.0568V23.5898H41.5844V25.875C41.5954 26.0475 41.5689 26.2202 41.5069 26.3816C41.4612 26.457 41.3945 26.5174 41.3148 26.5556C41.235 26.5937 41.1459 26.6079 41.0582 26.5964H39.9502C40.0244 26.4224 40.0602 26.2347 40.0555 26.0457V24.5975H39.6899V25.8806C39.6899 26.4312 39.5569 26.5964 39.1636 26.5964H38.5432C38.6152 26.4219 38.6492 26.2342 38.6429 26.0457V24.5975H38.2773V25.8806C38.2773 26.4312 38.1665 26.5964 37.8286 26.5964H37.1749C37.2198 26.4163 37.2422 26.2313 37.2414 26.0457V24.5975H36.8647V26.1669C36.7926 26.9763 36.3993 27.4664 35.7567 27.4664C35.1141 27.4664 34.6488 26.8717 34.6488 25.9631V24.5975H34.2832V26.0292C34.2832 27.081 34.9313 27.8188 35.7623 27.8188" fill="black"/>
<path d="M44.7208 27.3008H44.3496V27.7413H44.7208V27.3008Z" fill="black"/>
<path d="M27.709 31.1555H28.5233V30.4121H27.709V31.1555Z" fill="black"/>
<path d="M26.4844 31.1555H27.2987V30.4121H26.4844V31.1555Z" fill="black"/>
<path d="M27.0879 30.1044H27.9022V29.3721H27.0879V30.1044Z" fill="black"/>
<path d="M24.6289 31.1611V32.2624C24.6289 33.4739 25.3435 34.0741 26.7838 34.0741H29.1437C29.2908 34.093 29.4404 34.0787 29.5812 34.0322C29.722 33.9857 29.8504 33.9083 29.9569 33.8056C30.0634 33.7029 30.1452 33.5777 30.1962 33.4392C30.2472 33.3007 30.2662 33.1526 30.2516 33.0058V31.1666H29.3431V32.5708C29.3631 32.692 29.3419 32.8163 29.2826 32.924C29.2234 33.0318 29.1297 33.1168 29.0163 33.1655C28.8378 33.2236 28.6496 33.2461 28.4623 33.2316H26.8004C26.4866 33.2537 26.1723 33.1969 25.8864 33.0664C25.7626 32.9842 25.6637 32.87 25.6003 32.7361C25.5369 32.6022 25.5113 32.4537 25.5263 32.3065V31.2052L24.6289 31.1611Z" fill="black"/>
<path d="M43.8791 34.4219H43.0703V35.1763H43.8791V34.4219Z" fill="black"/>
<path d="M32.8664 33.2316H32.3124C32.2322 33.2276 32.1537 33.2073 32.0817 33.172C32.0097 33.1366 31.9457 33.0869 31.8938 33.026C31.8419 32.9651 31.8031 32.8943 31.7798 32.8179C31.7565 32.7415 31.7492 32.6612 31.7584 32.5819C31.7584 32.2405 31.9412 31.9762 32.3124 31.9762C32.3921 31.9754 32.4711 31.9917 32.544 32.0241C32.6168 32.0564 32.6817 32.1041 32.7343 32.1637C32.7869 32.2233 32.8259 32.2935 32.8487 32.3694C32.8715 32.4454 32.8775 32.5254 32.8664 32.6039V33.2316ZM48.5878 29.9277V32.5984C48.5878 33.0169 48.4327 33.2316 48.128 33.2316H46.66C46.7348 33.0212 46.7723 32.7995 46.7708 32.5764V29.9277H45.8734V32.6094C45.8734 33.0224 45.7127 33.2316 45.4081 33.2316H43.8625C43.9373 33.0212 43.9748 32.7995 43.9733 32.5764V31.1667H43.0537V32.6094C43.0537 33.0224 42.8986 33.2316 42.5884 33.2316H41.4417C41.4312 32.8305 41.3126 32.4396 41.0982 32.0996C40.8838 31.7596 40.5816 31.4831 40.223 31.2989C39.9087 31.1621 39.5689 31.0927 39.2258 31.0951C38.9246 31.0861 38.6249 31.1402 38.3462 31.2541C38.0675 31.368 37.816 31.5389 37.6083 31.7559L38.0625 32.3726C38.3581 32.0817 38.7546 31.9142 39.1704 31.9046C39.3594 31.8979 39.5476 31.9323 39.7218 32.0056C39.896 32.0788 40.0519 32.1891 40.1787 32.3286C40.4025 32.5699 40.5339 32.8817 40.5498 33.2096H33.7804V32.6424C33.7804 32.3542 33.6942 32.0725 33.5327 31.8331C33.3713 31.5937 33.1419 31.4074 32.8737 31.2979C32.6055 31.1883 32.3106 31.1605 32.0265 31.218C31.7423 31.2754 31.4818 31.4155 31.2779 31.6205C31.0741 31.8255 30.9361 32.086 30.8816 32.3691C30.827 32.6522 30.8584 32.945 30.9716 33.2103C31.0849 33.4756 31.2749 33.7015 31.5176 33.8592C31.7602 34.017 32.0446 34.0994 32.3345 34.0962C32.5201 34.1068 32.7063 34.0939 32.8885 34.0576C32.8165 34.3109 32.606 34.4431 32.257 34.4431H32.1794V35.1644H32.2736C33.16 35.1644 33.6585 34.812 33.7638 34.0962H48.3164C48.4833 34.1012 48.6493 34.0687 48.8018 34.001C48.9543 33.9333 49.0895 33.8322 49.1972 33.7052C49.3959 33.4669 49.5037 33.1667 49.5018 32.8572V29.9387L48.5878 29.9277Z" fill="black"/>
<path d="M25.5035 41.2436H27.0878C27.2571 41.2496 27.4255 41.2171 27.5801 41.1483C27.7347 41.0796 27.8714 40.9765 27.9797 40.8471C28.17 40.6116 28.2718 40.3176 28.2677 40.0156V38.3086H27.3592V39.7403C27.3592 40.1588 27.1986 40.3735 26.8939 40.3735H25.5533V38.3086H24.6337V40.7259C24.6337 41.2766 24.3346 41.5795 23.7363 41.5795V42.3118C24.7667 42.3118 25.3539 41.9539 25.5035 41.2436Z" fill="black"/>
<path d="M27.3928 42.3175H28.2071V41.5686H27.3928V42.3175Z" fill="black"/>
<path d="M26.9768 41.5684H26.168V42.3172H26.9768V41.5684Z" fill="black"/>
<path d="M39.6406 37.8137H40.4494V37.0703H39.6406V37.8137Z" fill="black"/>
<path d="M39.2248 37.0752H38.416V37.8131H39.2248V37.0752Z" fill="black"/>
<path d="M37.0095 40.3732H34.3394C34.8435 39.5197 35.4473 39.0847 36.112 39.0847C36.666 39.0847 37.015 39.5693 37.015 40.2466C37.0178 40.2888 37.0178 40.3311 37.015 40.3732M30.9214 40.3732H30.3619C30.2819 40.37 30.2035 40.3504 30.1315 40.3156C30.0596 40.2808 29.9956 40.2317 29.9436 40.1712C29.8916 40.1107 29.8527 40.0402 29.8294 39.9641C29.806 39.8881 29.7987 39.808 29.8079 39.729C29.8079 39.3821 29.9908 39.1178 30.3619 39.1178C30.4417 39.117 30.5207 39.1333 30.5935 39.1657C30.6663 39.198 30.7312 39.2457 30.7838 39.3053C30.8364 39.3649 30.8754 39.4351 30.8982 39.511C30.921 39.587 30.927 39.667 30.9159 39.7455L30.9214 40.3732ZM43.3911 39.74C43.3911 40.1585 43.236 40.3732 42.9313 40.3732H40.4108C40.4856 40.1647 40.5231 39.9448 40.5216 39.7235V38.3083H39.602V39.751C39.602 40.1695 39.4469 40.3732 39.1422 40.3732H37.9678C37.8681 39.0462 37.2587 38.2973 36.1841 38.2973C35.8338 38.308 35.4899 38.3932 35.1756 38.547C34.8612 38.7009 34.5836 38.9199 34.3615 39.1893L34.4446 37.0693H33.5361V40.3732H31.8077V39.784C31.8169 39.5908 31.786 39.3978 31.7172 39.2169C31.6483 39.0361 31.5429 38.8711 31.4074 38.7323C31.2719 38.5935 31.1092 38.4838 30.9294 38.4099C30.7496 38.336 30.5565 38.2996 30.3619 38.3028C30.1659 38.2933 29.97 38.3248 29.787 38.395C29.6039 38.4653 29.4376 38.5729 29.2988 38.7108C29.1601 38.8487 29.0519 39.014 28.9812 39.196C28.9105 39.378 28.8789 39.5727 28.8884 39.7675C28.8807 39.9624 28.9134 40.1568 28.9846 40.3386C29.0558 40.5204 29.1639 40.6857 29.3021 40.8241C29.4403 40.9626 29.6058 41.0712 29.7881 41.1433C29.9704 41.2154 30.1658 41.2495 30.3619 41.2433C30.5474 41.2507 30.7332 41.2378 30.9159 41.2047C30.8457 41.458 30.6352 41.5847 30.2844 41.5847H30.2068V42.3115H30.301C31.1873 42.3115 31.6803 41.9536 31.7856 41.2433H43.103C43.2732 41.2502 43.4427 41.218 43.5984 41.1493C43.754 41.0805 43.8916 40.977 44.0005 40.8468C44.1967 40.6136 44.3046 40.3194 44.3051 40.0153V37.0693H43.3911V39.74Z" fill="black"/>
<path d="M44.9707 41.2439H45.8737V37.0645H44.9707V41.2439Z" fill="black"/>
<path d="M48.0893 40.4401C48.0081 40.4347 47.9288 40.4129 47.8564 40.376C47.7839 40.3391 47.7198 40.2879 47.6679 40.2255C47.6161 40.1632 47.5776 40.0909 47.5548 40.0133C47.532 39.9356 47.5254 39.8541 47.5353 39.7738C47.5353 39.3883 47.7514 39.1185 48.0893 39.1185C48.4272 39.1185 48.6433 39.3993 48.6433 39.7903C48.6433 40.1813 48.4494 40.4401 48.1225 40.4401M48.1225 38.298C47.9257 38.2901 47.7294 38.3231 47.5462 38.395C47.3629 38.4669 47.1969 38.5761 47.0586 38.7156C46.9204 38.8551 46.813 39.0218 46.7434 39.205C46.6738 39.3882 46.6436 39.5838 46.6545 39.7793C46.6454 39.9754 46.6768 40.1712 46.7468 40.3548C46.8168 40.5384 46.9238 40.7057 47.0614 40.8466C47.1989 40.9874 47.3641 41.0988 47.5466 41.1738C47.7291 41.2488 47.9251 41.2858 48.1225 41.2826C48.2467 41.2952 48.3719 41.2742 48.485 41.2218C48.5981 41.1695 48.6949 41.0877 48.7651 40.9852C48.7456 41.158 48.6599 41.3167 48.5258 41.4285C48.3918 41.5402 48.2196 41.5964 48.045 41.5854H47.984V42.3123H48.0782C49.0754 42.3123 49.5684 41.9103 49.5684 41.1119V39.7903C49.5782 39.5964 49.548 39.4026 49.4796 39.2207C49.4111 39.0389 49.3059 38.8729 49.1704 38.7331C49.0349 38.5933 48.872 38.4825 48.6918 38.4077C48.5116 38.3329 48.3178 38.2955 48.1225 38.298Z" fill="black"/>
<path d="M24.622 47.8679C24.622 48.4186 24.3229 48.7214 23.7246 48.7214V49.4538C24.2095 49.4976 24.6939 49.3645 25.0874 49.0793C25.2511 48.9091 25.3763 48.7061 25.4547 48.4839C25.533 48.2617 25.5627 48.0254 25.5416 47.7908V45.4561H24.622V47.8679Z" fill="black"/>
<path d="M35.1372 44.2168H34.334V44.9712H35.1372V44.2168Z" fill="black"/>
<path d="M35.5586 44.9712H36.3618V44.2168H35.5586V44.9712Z" fill="black"/>
<path d="M39.4961 49.454H40.3326V48.7051H39.4961V49.454Z" fill="black"/>
<path d="M39.4408 46.8826C39.4408 47.3066 39.2857 47.5213 38.981 47.5213H36.322C36.3964 47.3108 36.4339 47.0892 36.4328 46.866V45.4564H35.5188V46.8991C35.5188 47.3121 35.3581 47.5213 35.0535 47.5213H32.5772C32.5664 47.1594 32.4681 46.8053 32.2907 46.4891C32.1133 46.1728 31.862 45.9036 31.558 45.7042C31.2987 45.5601 31.0118 45.4719 30.7159 45.4454H30.2284L31.0372 44.2174H29.9293L28.6386 46.2824H30.3005C30.4675 46.2794 30.6334 46.3107 30.7877 46.3741C30.9421 46.4376 31.0817 46.5319 31.1979 46.6513C31.4318 46.886 31.5783 47.1928 31.6134 47.5213H27.9018C27.2315 47.5213 27.1207 47.2845 27.1207 46.844V44.2119H26.2067V47.3176C26.1942 47.4639 26.2146 47.6111 26.2664 47.7486C26.3181 47.8861 26.4 48.0104 26.506 48.1127C26.612 48.2149 26.7395 48.2924 26.8794 48.3397C27.0192 48.3869 27.1679 48.4027 27.3146 48.3858H39.1749C39.3445 48.3945 39.5138 48.3631 39.6688 48.2942C39.8239 48.2253 39.9602 48.1208 40.0668 47.9894C40.255 47.7455 40.3493 47.4428 40.3327 47.1359V45.4564H39.4408V46.8826Z" fill="black"/>
<path d="M43.4016 46.8599C43.4016 47.2949 43.2465 47.5097 42.9418 47.5207L42.133 44.6518H41.1691L41.9945 47.5207H41.0195V48.3852H43.18C43.3266 48.3919 43.4732 48.3695 43.6111 48.3194C43.749 48.2693 43.8755 48.1925 43.9832 48.0934C44.0899 47.9958 44.174 47.8763 44.2295 47.7432C44.285 47.61 44.3106 47.4665 44.3045 47.3225V44.2168H43.4016V46.8599Z" fill="black"/>
<path d="M44.9707 48.3858H45.8737V44.2119H44.9707V48.3858Z" fill="black"/>
<path d="M48.0896 47.5817C48.0084 47.5763 47.9291 47.5545 47.8567 47.5176C47.7842 47.4807 47.7201 47.4295 47.6683 47.3672C47.6164 47.3048 47.5779 47.2325 47.5551 47.1549C47.5323 47.0772 47.5257 46.9957 47.5357 46.9154C47.5357 46.5355 47.7517 46.2656 48.0896 46.2656C48.4275 46.2656 48.6436 46.541 48.6436 46.9374C48.6436 47.3339 48.4497 47.5817 48.1229 47.5817M48.1229 45.4397C47.9255 45.4316 47.7287 45.4648 47.5451 45.537C47.3615 45.6093 47.1951 45.719 47.0568 45.8591C46.9185 45.9992 46.8112 46.1665 46.742 46.3504C46.6728 46.5342 46.6431 46.7305 46.6549 46.9264C46.6465 47.1221 46.6785 47.3173 46.7488 47.5002C46.8192 47.6831 46.9263 47.8498 47.0638 47.9901C47.2013 48.1303 47.3661 48.2412 47.5482 48.3158C47.7304 48.3905 47.9259 48.4274 48.1229 48.4242C48.2471 48.438 48.3728 48.4176 48.4861 48.3651C48.5995 48.3127 48.6961 48.2302 48.7655 48.1268C48.7472 48.3006 48.6621 48.4607 48.5279 48.5736C48.3937 48.6865 48.2208 48.7434 48.0453 48.7325H47.9844V49.4539H48.0785C49.0757 49.4539 49.5687 49.0519 49.5687 48.259V46.9374C49.5785 46.7433 49.5483 46.5492 49.4799 46.367C49.4115 46.1849 49.3064 46.0186 49.171 45.8783C49.0356 45.7381 48.8728 45.6268 48.6925 45.5514C48.5123 45.4759 48.3184 45.4379 48.1229 45.4397Z" fill="black"/>
<path d="M49.502 57.8066H44.7656V53.082H49.5186L49.502 57.8066Z" fill="#6A1840"/>
<path d="M152.472 27.2631L151.364 25.914C150.713 26.2996 150.012 26.5977 149.282 26.8005C148.523 27.0275 147.736 27.1407 146.944 27.1364C145.829 27.1462 144.723 26.9327 143.692 26.5087C141.686 25.6821 140.092 24.0977 139.26 22.1035C138.418 20.028 138.418 17.7089 139.26 15.6333C140.092 13.6391 141.686 12.0547 143.692 11.2281C145.772 10.3914 148.099 10.3914 150.179 11.2281C152.185 12.0547 153.779 13.6391 154.611 15.6333C155.259 17.2074 155.413 18.9393 155.053 20.602C154.693 22.2646 153.836 23.7804 152.594 24.9503L154.3 26.9877L152.472 27.2631ZM146.933 25.5285C147.524 25.5292 148.113 25.4514 148.683 25.2972C149.226 25.1485 149.744 24.9242 150.223 24.631L147.924 21.9107L149.741 21.6409L151.464 23.6949C152.084 23.082 152.574 22.3517 152.904 21.5473C153.58 19.853 153.58 17.9664 152.904 16.2721C152.587 15.4884 152.118 14.7739 151.525 14.1686C150.927 13.555 150.209 13.069 149.416 12.7405C148.623 12.412 147.77 12.2477 146.911 12.2579C146.03 12.2513 145.157 12.4237 144.346 12.7644C143.567 13.0889 142.862 13.5666 142.274 14.1686C141.681 14.7739 141.212 15.4884 140.895 16.2721C140.229 17.955 140.229 19.8259 140.895 21.5088C141.212 22.2959 141.68 23.0141 142.274 23.6233C142.862 24.2253 143.567 24.7029 144.346 25.0274C145.157 25.369 146.03 25.5397 146.911 25.5285H146.933Z" fill="black"/>
<path d="M155.652 26.8996L162.3 10.8867H164.444L171.091 26.8996H169.158L167.136 21.8447H159.541L157.491 26.8776L155.652 26.8996ZM160.162 20.3579H166.51L163.314 12.5166L160.162 20.3579Z" fill="black"/>
<path d="M174.292 26.8995V12.4835H168.465V10.8866H181.882V12.4835H176.054V26.8995H174.292Z" fill="black"/>
<path d="M179.262 26.8995L185.909 10.8866H188.047L194.695 26.8995H192.762L190.745 21.8445H183.15L181.101 26.8775L179.262 26.8995ZM183.776 20.3578H190.13L186.945 12.5165L183.776 20.3578Z" fill="black"/>
<path d="M196.795 26.8989V10.886H203.703C204.656 10.8556 205.604 11.044 206.473 11.4366C207.222 11.7889 207.855 12.3444 208.301 13.039C208.752 13.766 208.981 14.6078 208.96 15.4619C208.983 16.4461 208.653 17.4065 208.029 18.1711C207.38 18.9432 206.508 19.4986 205.531 19.7625L209.143 26.8769H207.187L203.753 20.0158H198.601V26.8989H196.795ZM198.568 18.529H203.587C204.528 18.5782 205.456 18.2846 206.196 17.703C206.516 17.4338 206.771 17.0955 206.941 16.714C207.111 16.3324 207.191 15.9174 207.176 15.5004C207.191 15.0834 207.111 14.6685 206.941 14.2869C206.771 13.9053 206.516 13.5671 206.196 13.2978C205.452 12.7242 204.526 12.435 203.587 12.4829H198.568V18.529Z" fill="black"/>
<path d="M228.028 27.1526C226.91 27.1614 225.802 26.946 224.77 26.5193C222.765 25.6923 221.171 24.108 220.339 22.1141C219.496 20.0367 219.496 17.7158 220.339 15.6385C221.176 13.648 222.768 12.0654 224.77 11.2333C226.853 10.3962 229.181 10.3962 231.263 11.2333C233.266 12.0639 234.859 13.647 235.695 15.6385C236.542 17.7148 236.542 20.0378 235.695 22.1141C235.065 23.6117 234.002 24.8892 232.639 25.7836C231.277 26.6779 229.677 27.1488 228.044 27.136L228.028 27.1526ZM228.028 25.5006C228.887 25.5088 229.739 25.3437 230.532 25.0153C231.325 24.6868 232.043 24.2019 232.642 23.5899C233.236 22.9806 233.704 22.2625 234.022 21.4754C234.681 19.7913 234.681 17.9227 234.022 16.2387C233.701 15.4563 233.233 14.7423 232.642 14.1352C232.044 13.5221 231.326 13.0365 230.533 12.708C229.739 12.3795 228.887 12.215 228.028 12.2244C227.145 12.2183 226.271 12.3907 225.457 12.731C224.681 13.057 223.978 13.5344 223.391 14.1352C222.798 14.7418 222.328 15.4559 222.006 16.2387C221.347 17.9227 221.347 19.7913 222.006 21.4754C222.324 22.2638 222.794 22.9823 223.391 23.5899C223.978 24.1906 224.681 24.6681 225.457 24.994C226.271 25.3343 227.145 25.5067 228.028 25.5006Z" fill="black"/>
<path d="M239.328 26.8993V10.8864H246.319C247.273 10.854 248.221 11.0425 249.089 11.437C249.833 11.7927 250.46 12.3525 250.895 13.0504C251.334 13.786 251.557 14.6292 251.537 15.4843C251.558 16.3412 251.335 17.1866 250.895 17.9237C250.456 18.6253 249.826 19.1886 249.078 19.5481C248.214 19.9561 247.265 20.1561 246.308 20.1318H241.084V26.8993H239.328ZM241.101 18.6395H246.186C247.126 18.6896 248.051 18.3936 248.784 17.8081C249.106 17.5282 249.36 17.18 249.528 16.7891C249.696 16.3983 249.773 15.9749 249.754 15.5504C249.772 15.1285 249.694 14.7079 249.526 14.32C249.358 13.932 249.105 13.5865 248.784 13.3092C248.047 12.7302 247.124 12.4367 246.186 12.4833H241.101V18.6395Z" fill="black"/>
<path d="M254.445 26.8995V10.8866H265.979V12.4449H256.223V18.0506H262.594V19.5814H256.223V25.3467H266.078V26.905L254.445 26.8995Z" fill="black"/>
<path d="M268.848 26.8996V10.8867H270.62L280.315 23.8821V10.8867H281.977V26.8996H280.409L270.532 13.5849V26.8996H268.848Z" fill="black"/>
<path d="M139.404 49.2004V33.1875H141.155V49.2004H139.404Z" fill="black"/>
<path d="M145.857 49.2004V33.1875H147.63L157.319 46.1828V33.1875H158.981V49.2004H157.413L147.53 35.8637V49.2004H145.857Z" fill="black"/>
<path d="M163.678 49.2004V33.1875H165.45L175.139 46.1828V33.1875H176.801V49.2004H175.233L165.356 35.8637V49.2004H163.678Z" fill="black"/>
<path d="M189.049 49.4537C187.932 49.4643 186.824 49.2508 185.792 48.826C183.787 47.9979 182.193 46.4139 181.36 44.4208C180.518 42.3434 180.518 40.0225 181.36 37.9451C182.194 35.9523 183.787 34.3685 185.792 33.5399C187.873 32.6976 190.203 32.6976 192.284 33.5399C194.29 34.367 195.884 35.9513 196.716 37.9451C197.558 40.0225 197.558 42.3434 196.716 44.4208C196.088 45.9201 195.023 47.199 193.66 48.0936C192.296 48.9883 190.694 49.458 189.06 49.4427L189.049 49.4537ZM189.049 47.8018C189.909 47.8119 190.761 47.6476 191.555 47.3191C192.348 46.9906 193.066 46.5046 193.664 45.891C194.258 45.2827 194.727 44.5643 195.043 43.7765C195.702 42.0962 195.702 40.2311 195.043 38.5508C194.723 37.7685 194.255 37.0544 193.664 36.4474C193.066 35.8337 192.348 35.3478 191.555 35.0193C190.761 34.6907 189.909 34.5265 189.049 34.5366C188.169 34.5281 187.296 34.6987 186.484 35.0377C185.706 35.3662 185.002 35.8454 184.413 36.4474C183.819 37.0526 183.351 37.7671 183.033 38.5508C182.371 40.2305 182.371 42.0969 183.033 43.7765C183.347 44.5653 183.816 45.2841 184.413 45.891C185.002 46.493 185.706 46.9722 186.484 47.3007C187.294 47.6492 188.167 47.8291 189.049 47.8293V47.8018Z" fill="black"/>
<path d="M205.259 49.2004L198.65 33.1875H200.562L206.384 47.5485L212.3 33.1875H214.089L207.397 49.2004H205.259Z" fill="black"/>
<path d="M212.195 49.2004L218.871 33.1875H221.009L227.656 49.2004H225.723L223.696 44.1675H216.106L214.057 49.2004H212.195ZM216.71 42.6587H223.059L219.884 34.8119L216.71 42.6587Z" fill="black"/>
<path d="M231.743 49.2004V34.7679H225.91V33.1875H239.327V34.7679H233.516V49.2004H231.743Z" fill="black"/>
<path d="M242.641 49.2004V33.1875H244.413V49.2004H242.641Z" fill="black"/>
<path d="M256.645 49.4537C255.528 49.4643 254.42 49.2508 253.388 48.826C251.381 47.9994 249.787 46.415 248.956 44.4208C248.114 42.3434 248.114 40.0225 248.956 37.9451C249.788 35.9513 251.382 34.367 253.388 33.5399C255.469 32.6976 257.799 32.6976 259.88 33.5399C261.886 34.367 263.48 35.9513 264.312 37.9451C265.154 40.0225 265.154 42.3434 264.312 44.4208C263.683 45.9201 262.619 47.199 261.255 48.0936C259.891 48.9883 258.29 49.458 256.656 49.4427L256.645 49.4537ZM256.645 47.8018C257.504 47.8112 258.357 47.6467 259.15 47.3182C259.943 46.9897 260.661 46.5041 261.259 45.891C261.854 45.2827 262.323 44.5643 262.639 43.7765C263.298 42.0962 263.298 40.2311 262.639 38.5508C262.318 37.7685 261.85 37.0544 261.259 36.4474C260.661 35.8342 259.943 35.3487 259.15 35.0202C258.357 34.6917 257.504 34.5271 256.645 34.5366C255.781 34.5247 254.924 34.688 254.126 35.0165C253.328 35.345 252.605 35.8319 252.003 36.4474C251.412 37.0544 250.944 37.7685 250.623 38.5508C249.964 40.2311 249.964 42.0962 250.623 43.7765C251.096 44.9764 251.926 46.0045 253.002 46.7237C254.078 47.4428 255.349 47.8189 256.645 47.8018Z" fill="black"/>
<path d="M268.848 49.2004V33.1875H270.62L280.315 46.1828V33.1875H281.977V49.2004H280.409L270.532 35.8637V49.2004H268.848Z" fill="black"/>
<path d="M124.197 13.805L130.03 0.490234L117.793 8.38105L121.975 9.72464L124.197 13.805Z" fill="#F47A00"/>
<path fill-rule="evenodd" clip-rule="evenodd" d="M119.05 14.835C108.004 32.1749 85.8902 56.8881 93.4629 56.8881H129.958C115.245 48.8266 108.874 33.6231 119.05 14.835Z" fill="#BEBCBA"/>
<path fill-rule="evenodd" clip-rule="evenodd" d="M120.658 10.7879C103.07 33.3315 81.2213 56.6185 73.2608 56.8884C73.2608 56.8884 72.9728 23.5079 73.2608 0.529297C78.4016 52.3455 97.9731 33.7665 120.658 10.7879Z" fill="#701D3D"/>
<path fill-rule="evenodd" clip-rule="evenodd" d="M107.131 21.7729C76.1641 51.8329 76.2195 0.369141 76.1641 0.369141H101.608C97.8295 2.57174 74.8567 42.0038 107.131 21.7729Z" fill="#BEBCBA"/>
<path d="M60.6035 0.275269V0.825919" stroke="#999999" stroke-miterlimit="10"/>
<path d="M60.6035 1.91602V55.8963" stroke="#999999" stroke-miterlimit="10" stroke-dasharray="1.98 1.98"/>
<path d="M60.6035 56.4414V56.9921" stroke="#999999" stroke-miterlimit="10"/>
</g>
<defs>
<clipPath id="clip0_5_337">
<rect width="282" height="58" fill="white"/>
</clipPath>
</defs>
</svg>
