<svg width="42" height="33" viewBox="0 0 42 33" fill="none" xmlns="http://www.w3.org/2000/svg">
<path d="M41.3851 4.08169C39.8386 4.75108 38.2805 5.24735 36.5609 5.40893C38.2805 4.41639 39.6655 2.74291 40.3464 0.919406C38.6268 1.91195 36.9071 2.58134 35.0144 2.91603C33.2832 1.2541 31.0442 0.250015 28.6321 0.250015C23.981 0.250015 20.1839 3.92012 20.1839 8.42118C20.1839 9.07903 20.1839 9.74842 20.3571 10.2562C11.4703 10.2562 5.3766 5.24735 1.24485 0.250015C0.379262 1.41568 0.0330249 2.91603 0.0330249 4.41639C0.0330249 7.24398 1.59109 9.74842 3.83008 11.2488C2.44514 11.0872 1.07173 10.7525 0.0330249 10.2562C0.0330249 10.2562 0.0330249 10.2562 0.0330249 10.4178C0.0330249 14.4226 2.96449 17.7465 6.76154 18.4159C6.06907 18.5774 5.3766 18.7505 4.51101 18.7505C4.0032 18.7505 3.48384 18.7505 2.96449 18.589C4.0032 21.9244 8.81587 25.7561 12.6014 25.7561C9.66992 27.9143 6.9462 29.7955 1.49876 29.7955C0.806285 29.7955 1.36026 29.7955 0.0214844 29.7955C3.807 32.1268 8.29652 32.75 12.9476 32.75C28.6321 32.75 37.0803 20.2509 37.0803 9.41372C37.0803 9.07903 37.0803 8.75587 37.0803 8.42118C38.7999 7.24398 40.1848 5.75516 41.3851 4.08169Z" fill="white"/>
</svg>
