<svg width="30" height="31" viewBox="0 0 30 31" fill="none" xmlns="http://www.w3.org/2000/svg">
<path d="M14.985 0.5C6.705 0.5 0 7.22 0 15.5C0 23.78 6.705 30.5 14.985 30.5C23.28 30.5 30 23.78 30 15.5C30 7.22 23.28 0.5 14.985 0.5ZM25.38 9.5H20.955C20.475 7.625 19.785 5.825 18.885 4.16C21.645 5.105 23.94 7.025 25.38 9.5ZM15 3.56C16.245 5.36 17.22 7.355 17.865 9.5H12.135C12.78 7.355 13.755 5.36 15 3.56ZM3.39 18.5C3.15 17.54 3 16.535 3 15.5C3 14.465 3.15 13.46 3.39 12.5H8.46C8.34 13.49 8.25 14.48 8.25 15.5C8.25 16.52 8.34 17.51 8.46 18.5H3.39ZM4.62 21.5H9.045C9.525 23.375 10.215 25.175 11.115 26.84C8.355 25.895 6.06 23.99 4.62 21.5ZM9.045 9.5H4.62C6.06 7.01 8.355 5.105 11.115 4.16C10.215 5.825 9.525 7.625 9.045 9.5ZM15 27.44C13.755 25.64 12.78 23.645 12.135 21.5H17.865C17.22 23.645 16.245 25.64 15 27.44ZM18.51 18.5H11.49C11.355 17.51 11.25 16.52 11.25 15.5C11.25 14.48 11.355 13.475 11.49 12.5H18.51C18.645 13.475 18.75 14.48 18.75 15.5C18.75 16.52 18.645 17.51 18.51 18.5ZM18.885 26.84C19.785 25.175 20.475 23.375 20.955 21.5H25.38C23.94 23.975 21.645 25.895 18.885 26.84ZM21.54 18.5C21.66 17.51 21.75 16.52 21.75 15.5C21.75 14.48 21.66 13.49 21.54 12.5H26.61C26.85 13.46 27 14.465 27 15.5C27 16.535 26.85 17.54 26.61 18.5H21.54Z" fill="black"/>
</svg>
