<svg width="161" height="58" viewBox="0 0 161 58" fill="none" xmlns="http://www.w3.org/2000/svg">
<g clip-path="url(#clip0_291_68)">
<path d="M8.77756 58V0L23.6013 8.28844L23.6654 13.2921L22.0016 13.3112L21.9471 9.25925L10.4414 2.82647V55.1735L21.9407 48.7408V44.4788H23.6077V49.7084L8.77756 58Z" fill="white"/>
<path d="M32.4425 45.1058H15.0349V41.5377H28.852V16.4591H15.0349V12.891H32.4425V45.1058Z" fill="white"/>
<path d="M9.64634 45.1058H0V12.891H9.64634V16.4591H3.59053V41.5377H9.64634V45.1058Z" fill="white"/>
<path d="M49.883 31.6387L48.3122 30.0791C47.4401 30.7409 46.3673 31.0889 45.2698 31.0658C44.5983 31.08 43.9309 30.9575 43.309 30.7056C42.687 30.4538 42.1236 30.0781 41.6536 29.6016C41.3444 29.3031 41.0856 28.957 40.8875 28.5767C40.7004 28.1955 40.5666 27.7907 40.4899 27.3735C40.3983 26.8788 40.3489 26.3773 40.3425 25.8744C40.3296 25.3142 40.3232 24.6595 40.3232 23.9105C40.3232 23.1593 40.3232 22.5068 40.3425 21.9466C40.3489 21.4436 40.3983 20.9421 40.4899 20.4474C40.5665 20.0333 40.7002 19.6316 40.8875 19.2538C41.0863 18.8729 41.345 18.5259 41.6536 18.2257C42.6217 17.2891 43.9198 16.765 45.2714 16.765C46.623 16.765 47.9212 17.2891 48.8892 18.2257C49.1979 18.5251 49.4556 18.8723 49.6522 19.2538C49.8408 19.631 49.9747 20.0329 50.0497 20.4474C50.1425 20.942 50.1929 21.4435 50.2004 21.9466C50.2004 22.5068 50.2196 23.1593 50.2196 23.9105C50.2196 24.581 50.2132 25.1762 50.2004 25.6961C50.1905 26.1646 50.1541 26.6322 50.0914 27.0966C50.0379 27.4817 49.9411 27.8597 49.8029 28.2234C49.6657 28.5674 49.4777 28.8892 49.2451 29.1783L50.7967 30.7188L49.883 31.6387ZM48.6808 22.058C48.6672 21.6247 48.6233 21.1929 48.5494 20.7657C48.4974 20.4469 48.3969 20.1378 48.2512 19.849C48.1117 19.582 47.9311 19.3382 47.7159 19.1265C47.4038 18.8071 47.0282 18.5557 46.6131 18.388C46.1881 18.2116 45.732 18.1208 45.2714 18.1208C44.8108 18.1208 44.3548 18.2116 43.9298 18.388C43.5146 18.5557 43.1391 18.8071 42.827 19.1265C42.6108 19.3382 42.4291 19.5819 42.2884 19.849C42.1453 20.1388 42.0449 20.4475 41.9903 20.7657C41.9176 21.193 41.8748 21.6248 41.862 22.058C41.8428 22.5641 41.8332 23.1848 41.8332 23.9232C41.8332 24.6616 41.8332 25.2823 41.862 25.7884C41.8749 26.2216 41.9178 26.6534 41.9903 27.0807C42.0454 27.3987 42.1458 27.7074 42.2884 27.9974C42.4284 28.264 42.6102 28.5068 42.827 28.7167C43.1354 29.0368 43.5078 29.2894 43.9202 29.4584C44.3444 29.6354 44.8 29.7263 45.2602 29.7257C45.9868 29.7303 46.6942 29.4939 47.2703 29.0541L45.491 27.278L46.4047 26.3709L48.1326 28.0865C48.2724 27.8728 48.3803 27.6401 48.4532 27.3958C48.5341 27.1146 48.5909 26.8271 48.6231 26.5364C48.6616 26.2181 48.6904 25.8393 48.7033 25.4128C48.7161 24.9863 48.7225 24.4898 48.7225 23.9232C48.7097 23.1848 48.7001 22.5641 48.6808 22.058Z" fill="white"/>
<path d="M61.8886 30.948L58.6667 24.7126H55.2685V30.948H53.7586V16.8984H59.1828C59.7568 16.8932 60.3277 16.9825 60.8723 17.1626C61.3601 17.3288 61.8093 17.5908 62.1931 17.9328C62.5677 18.2773 62.862 18.6988 63.0555 19.1678C63.2714 19.6864 63.3804 20.2427 63.3761 20.8039C63.4132 21.7203 63.1059 22.6177 62.5137 23.3216C61.9363 23.9768 61.1518 24.4179 60.2888 24.5725L63.6454 30.9384L61.8886 30.948ZM61.0807 18.8814C60.4999 18.4356 59.7782 18.2099 59.045 18.2448H55.2685V23.3884H59.045C59.7777 23.4191 60.498 23.1939 61.0807 22.7518C61.6064 22.3317 61.8661 21.6856 61.8661 20.8166C61.8661 19.9477 61.6064 19.3079 61.0807 18.8814Z" fill="white"/>
<path d="M76.6188 25.3046C76.611 25.8374 76.5671 26.3691 76.4874 26.896C76.41 27.4065 76.2734 27.9064 76.0802 28.3857C75.8888 28.8623 75.602 29.2954 75.2371 29.6588C74.7946 30.0836 74.2655 30.4092 73.6855 30.6137C73.0344 30.8379 72.3484 30.9457 71.6594 30.932H66.7961V16.8983H71.6466C72.3356 16.8847 73.0216 16.9924 73.6726 17.2166C74.2532 17.42 74.7826 17.7457 75.2243 18.1715C75.5824 18.5294 75.8686 18.9518 76.0674 19.4161C76.2595 19.8583 76.3962 20.3222 76.4745 20.7975C76.5589 21.2878 76.6071 21.7835 76.6188 22.2807C76.6188 22.7858 76.6188 23.2823 76.6188 23.7704C76.6188 24.251 76.6188 24.7634 76.6188 25.3046ZM75.1057 22.4717C75.1011 22.0628 75.0711 21.6547 75.0159 21.2495C74.9677 20.875 74.8752 20.5075 74.7402 20.1545C74.6146 19.8251 74.4251 19.5234 74.1824 19.2665C73.835 18.8968 73.3995 18.6199 72.9161 18.4612C72.4221 18.3034 71.9057 18.226 71.3869 18.232H68.3061V29.6016H71.3869C71.9056 29.6086 72.422 29.5323 72.9161 29.3756C73.3942 29.2167 73.825 28.9422 74.1696 28.5766C74.419 28.3066 74.609 27.9879 74.7274 27.6408C74.863 27.2498 74.9555 26.8454 75.0031 26.4345C75.0581 25.993 75.0881 25.5488 75.0928 25.104C75.0928 24.6425 75.0928 24.1969 75.0928 23.7608C75.0928 23.3247 75.0992 22.9173 75.0928 22.4717H75.1057Z" fill="white"/>
<path d="M80.1712 30.948V16.8983H81.6844V30.948H80.1712Z" fill="white"/>
<path d="M100.047 22.7391C99.8484 23.2327 99.5431 23.677 99.1529 24.041C98.753 24.4062 98.2831 24.6877 97.7712 24.8685C97.2006 25.0719 96.5981 25.1721 95.9919 25.1646H92.2379V30.948H90.7248V16.8984H95.9887C96.5975 16.8909 97.2028 16.9889 97.7776 17.188C98.2919 17.3638 98.7628 17.6459 99.1593 18.0156C99.5467 18.3819 99.8516 18.8256 100.054 19.3175C100.273 19.8595 100.382 20.4394 100.374 21.0235C100.379 21.6111 100.268 22.194 100.047 22.7391ZM98.0212 18.9196C97.4035 18.4438 96.6351 18.2023 95.8541 18.2384H92.2379V23.8245H95.8541C96.638 23.8593 97.4081 23.6105 98.0212 23.1243C98.579 22.6564 98.8547 21.9561 98.8547 21.0203C98.8547 20.0845 98.579 19.3907 98.0212 18.9291V18.9196Z" fill="white"/>
<path d="M112.588 25.8871C112.582 26.39 112.533 26.8915 112.441 27.3862C112.363 27.8001 112.23 28.2017 112.043 28.5798C111.846 28.9598 111.587 29.3049 111.277 29.6016C110.81 30.07 110.253 30.4402 109.639 30.6902C109.008 30.9451 108.333 31.0728 107.651 31.0657C106.981 31.0793 106.316 30.9563 105.695 30.7045C105.075 30.4527 104.513 30.0773 104.045 29.6016C103.735 29.304 103.476 28.9577 103.279 28.5767C103.092 28.1955 102.958 27.7907 102.881 27.3735C102.788 26.8789 102.738 26.3774 102.731 25.8743C102.718 25.3141 102.711 24.6595 102.711 23.9104C102.711 23.1593 102.711 22.5067 102.731 21.9465C102.738 21.4435 102.788 20.942 102.881 20.4474C102.958 20.0332 103.092 19.6316 103.279 19.2538C103.477 18.8722 103.735 18.525 104.045 18.2257C105.012 17.2893 106.31 16.7653 107.661 16.7653C109.012 16.7653 110.31 17.2893 111.277 18.2257C111.587 18.525 111.846 18.8722 112.043 19.2538C112.231 19.6316 112.364 20.0332 112.441 20.4474C112.534 20.9473 112.583 21.4542 112.588 21.9625C112.604 22.5227 112.611 23.1752 112.611 23.9263C112.611 24.6775 112.604 25.3269 112.588 25.8871ZM111.069 22.0675C111.056 21.6343 111.013 21.2025 110.941 20.7752C110.886 20.4571 110.786 20.1483 110.643 19.8585C110.502 19.5914 110.32 19.3477 110.104 19.136C109.792 18.8122 109.415 18.5573 108.998 18.388C108.573 18.2116 108.117 18.1207 107.656 18.1207C107.196 18.1207 106.74 18.2116 106.315 18.388C105.899 18.5556 105.524 18.8071 105.212 19.1264C104.997 19.3382 104.816 19.582 104.676 19.849C104.532 20.1382 104.432 20.4471 104.378 20.7657C104.304 21.1928 104.261 21.6247 104.25 22.0579C104.228 22.564 104.218 23.1847 104.218 23.9232C104.218 24.6616 104.218 25.2823 104.25 25.7884C104.261 26.2217 104.304 26.6535 104.378 27.0807C104.432 27.3991 104.532 27.7079 104.676 27.9974C104.815 28.2639 104.996 28.5067 105.212 28.7167C105.523 29.0379 105.899 29.2905 106.315 29.4583C106.74 29.6347 107.196 29.7256 107.656 29.7256C108.117 29.7256 108.573 29.6347 108.998 29.4583C109.414 29.2915 109.79 29.0387 110.101 28.7167C110.318 28.5109 110.5 28.2724 110.643 28.0101C110.785 27.7201 110.885 27.4114 110.941 27.0934C111.013 26.6661 111.056 26.2343 111.069 25.8011C111.088 25.295 111.098 24.6712 111.098 23.9359C111.098 23.2006 111.088 22.564 111.069 22.0579V22.0675Z" fill="white"/>
<path d="M124.297 30.948L121.091 24.7126H117.693V30.948H116.18V16.8984H121.607C122.181 16.8933 122.752 16.9825 123.297 17.1626C123.788 17.3265 124.241 17.5887 124.627 17.9329C125.004 18.2763 125.299 18.698 125.493 19.1678C125.709 19.6864 125.818 20.2427 125.813 20.8039C125.852 21.7188 125.548 22.6156 124.96 23.3216C124.382 23.9769 123.596 24.4178 122.732 24.5725L126.092 30.9384L124.297 30.948ZM123.492 18.8814C122.911 18.4356 122.19 18.2099 121.456 18.2448H117.68V23.3885H121.456C122.189 23.4192 122.909 23.1939 123.492 22.7519C124.014 22.3275 124.275 21.6824 124.278 20.8166C124.278 19.9572 124.015 19.3079 123.492 18.8814Z" fill="white"/>
<path d="M133.363 18.2384V30.948H131.853V18.2384H127.756V16.8984H137.456V18.2384H133.363Z" fill="white"/>
<path d="M147.148 30.948L146.017 27.765H139.842L138.707 30.948H137.104L142.311 16.8983H143.593L148.751 30.948H147.148ZM142.961 19.0468L140.297 26.4695H145.584L142.961 19.0468Z" fill="white"/>
<path d="M151.049 30.948V16.8983H152.559V29.6016H159.795V30.9448L151.049 30.948Z" fill="white"/>
<path d="M44.0189 42.0151C43.8882 42.2582 43.712 42.4743 43.4995 42.6517C43.2889 42.824 43.049 42.9577 42.7911 43.0464C42.5158 43.141 42.2264 43.1883 41.9351 43.1864C41.6056 43.1895 41.2787 43.1279 40.9733 43.005C40.6756 42.8846 40.4052 42.706 40.1783 42.4798C40.0291 42.3352 39.9046 42.1675 39.8096 41.9833C39.7193 41.7997 39.6546 41.6048 39.6173 41.404C39.5724 41.1645 39.5477 40.9218 39.5435 40.6783C39.5435 40.4077 39.5435 40.0926 39.5435 39.7234C39.5435 39.3541 39.5435 39.0422 39.5435 38.7685C39.5477 38.525 39.5724 38.2822 39.6173 38.0428C39.6546 37.8429 39.7193 37.6491 39.8096 37.4666C39.9046 37.2824 40.0291 37.1147 40.1783 36.9701C40.4052 36.7439 40.6756 36.5653 40.9733 36.4449C41.2787 36.322 41.6056 36.2604 41.9351 36.2635C42.2262 36.2605 42.5156 36.3068 42.7911 36.4004C43.0491 36.4902 43.289 36.6249 43.4995 36.7982C43.7122 36.9753 43.8886 37.1915 44.0189 37.4348C44.1617 37.7029 44.2602 37.992 44.3106 38.291H43.5605C43.49 37.9052 43.294 37.553 43.0026 37.2884C42.7069 37.035 42.3255 36.902 41.9351 36.916C41.7154 36.9164 41.4977 36.9586 41.2939 37.0401C41.092 37.1183 40.9093 37.2388 40.7586 37.3934C40.6542 37.4949 40.5666 37.6119 40.4989 37.7404C40.429 37.8822 40.3804 38.0334 40.3546 38.1892C40.3195 38.3997 40.2991 38.6124 40.2937 38.8258C40.2937 39.0709 40.2937 39.3732 40.2937 39.7297C40.2937 40.0862 40.2937 40.3854 40.2937 40.6305C40.2991 40.8439 40.3195 41.0566 40.3546 41.2671C40.3804 41.4229 40.429 41.5741 40.4989 41.7159C40.5665 41.8453 40.6541 41.9635 40.7586 42.066C40.9093 42.2207 41.092 42.3412 41.2939 42.4193C41.4977 42.5009 41.7154 42.543 41.9351 42.5435C42.328 42.5547 42.7113 42.4221 43.0123 42.1711C43.3087 41.9091 43.5085 41.5561 43.5797 41.1684H44.3106C44.2596 41.4643 44.1611 41.7502 44.0189 42.0151Z" fill="white"/>
<path d="M49.3084 41.7892C49.2351 42.1093 49.073 42.4026 48.8404 42.6359C48.6719 42.8025 48.4728 42.9354 48.2537 43.0274C47.7588 43.2182 47.2098 43.2182 46.7149 43.0274C46.4959 42.9354 46.2967 42.8025 46.1282 42.6359C46.0105 42.5193 45.9121 42.385 45.8365 42.238C45.7629 42.0949 45.7048 41.9445 45.6634 41.7892C45.6208 41.6285 45.5918 41.4645 45.5768 41.299C45.5768 41.1271 45.5512 40.9489 45.5512 40.7643C45.5512 40.5797 45.5512 40.4078 45.5768 40.2327C45.5916 40.0651 45.6205 39.899 45.6634 39.7362C45.7048 39.5809 45.7629 39.4304 45.8365 39.2874C45.9122 39.1414 46.0106 39.0081 46.1282 38.8927C46.2967 38.726 46.4959 38.5931 46.7149 38.5012C47.2098 38.3104 47.7588 38.3104 48.2537 38.5012C48.4728 38.5931 48.6719 38.726 48.8404 38.8927C49.073 39.1247 49.2352 39.417 49.3084 39.7362C49.4537 40.4129 49.4537 41.1124 49.3084 41.7892ZM48.7282 40.3632C48.722 40.2317 48.706 40.1008 48.6801 39.9717C48.6557 39.8478 48.617 39.7271 48.5647 39.612C48.514 39.5021 48.4458 39.4011 48.3627 39.3128C48.1311 39.0924 47.8227 38.9694 47.5019 38.9694C47.1811 38.9694 46.8728 39.0924 46.6412 39.3128C46.5542 39.3987 46.4846 39.5002 46.436 39.612C46.3866 39.7282 46.3479 39.8486 46.3206 39.9717C46.291 40.1004 46.2728 40.2314 46.2661 40.3632C46.2661 40.4969 46.2661 40.6306 46.2661 40.7643C46.2661 40.898 46.2661 41.0316 46.2661 41.1653C46.2728 41.2971 46.291 41.4281 46.3206 41.5568C46.3484 41.6809 46.387 41.8023 46.436 41.9197C46.4819 42.032 46.5519 42.133 46.6412 42.2157C46.8728 42.4361 47.1811 42.5592 47.5019 42.5592C47.8227 42.5592 48.1311 42.4361 48.3627 42.2157C48.4479 42.1303 48.5164 42.0299 48.5647 41.9197C48.6165 41.8033 48.6552 41.6816 48.6801 41.5568C48.706 41.4277 48.722 41.2968 48.7282 41.1653C48.7282 41.0316 48.7282 40.898 48.7282 40.7643C48.7282 40.6306 48.7282 40.4969 48.7282 40.3632Z" fill="white"/>
<path d="M53.9292 43.1132V40.2199C53.9439 40.0475 53.9231 39.8739 53.868 39.7097C53.8128 39.5455 53.7246 39.3942 53.6086 39.265C53.3702 39.0635 53.0673 38.9528 52.7542 38.9528C52.4411 38.9528 52.1383 39.0635 51.8999 39.265C51.7863 39.3919 51.6995 39.5401 51.6444 39.7008C51.5893 39.8615 51.5672 40.0315 51.5793 40.2008V43.0941H50.8868V38.4152H51.5793V38.9308C51.739 38.7448 51.9398 38.5977 52.166 38.5011C52.4004 38.4036 52.6524 38.3549 52.9065 38.3579C53.1279 38.3459 53.3495 38.3786 53.5578 38.4541C53.7661 38.5296 53.9568 38.6463 54.1183 38.7971C54.2862 38.97 54.4165 39.1754 54.5008 39.4005C54.5852 39.6256 54.622 39.8655 54.6088 40.1053V43.1132H53.9292Z" fill="white"/>
<path d="M59.3337 43.1132V40.2199C59.3485 40.0475 59.3277 39.8739 59.2725 39.7097C59.2174 39.5455 59.1292 39.3942 59.0132 39.265C58.7748 39.0635 58.4719 38.9528 58.1588 38.9528C57.8457 38.9528 57.5428 39.0635 57.3045 39.265C57.1909 39.3919 57.104 39.5401 57.049 39.7008C56.9939 39.8615 56.9718 40.0315 56.9839 40.2008V43.0941H56.2914V38.4152H56.9839V38.9308C57.1436 38.7448 57.3443 38.5977 57.5705 38.5011C57.8049 38.4036 58.057 38.3549 58.3111 38.3579C58.5325 38.3459 58.7541 38.3786 58.9624 38.4541C59.1707 38.5296 59.3614 38.6463 59.5229 38.7971C59.6908 38.97 59.821 39.1754 59.9054 39.4005C59.9898 39.6256 60.0266 39.8655 60.0134 40.1053V43.1132H59.3337Z" fill="white"/>
<path d="M62.1415 40.9457C62.1143 41.3718 62.2404 41.7937 62.4974 42.1361C62.6268 42.2803 62.7876 42.3933 62.9676 42.4667C63.1476 42.54 63.342 42.5717 63.5361 42.5595C63.7727 42.567 64.0081 42.5225 64.2253 42.4289C64.4311 42.3265 64.6176 42.1898 64.7767 42.0247L65.248 42.4353C65.1349 42.5485 65.015 42.6548 64.8889 42.7536C64.7706 42.8428 64.6427 42.9186 64.5075 42.9796C64.3654 43.0447 64.2157 43.0918 64.0618 43.1197C63.8825 43.1556 63.6998 43.1727 63.5169 43.1706C63.2272 43.1747 62.9393 43.1262 62.6673 43.0273C62.4215 42.9336 62.2017 42.783 62.0261 42.5881C61.8356 42.3696 61.6936 42.1136 61.6094 41.8369C61.5028 41.4894 61.452 41.1274 61.4587 40.7643C61.4188 40.1303 61.6024 39.5023 61.9781 38.9882C62.1586 38.7911 62.3784 38.6332 62.6235 38.5247C62.8686 38.4161 63.1337 38.3591 63.402 38.3573C63.6704 38.3555 63.9362 38.4089 64.1828 38.5142C64.4293 38.6195 64.6512 38.7744 64.8344 38.9691C65.1967 39.4457 65.3773 40.0343 65.3442 40.6306V40.9489L62.1415 40.9457ZM64.6229 40.1818C64.6229 40.1117 64.6229 40.0481 64.6004 39.9908C64.591 39.9339 64.5782 39.8775 64.562 39.8221C64.562 39.768 64.5235 39.7107 64.4978 39.647C64.4113 39.4345 64.26 39.2542 64.065 39.1314C63.8627 39.0075 63.6296 38.9418 63.3918 38.9418C63.1541 38.9418 62.921 39.0075 62.7186 39.1314C62.5237 39.2542 62.3723 39.4345 62.2858 39.647C62.2395 39.758 62.2041 39.8731 62.18 39.9908C62.1567 40.1361 62.1439 40.2829 62.1415 40.43H64.6421C64.6357 40.3346 64.6293 40.2518 64.6229 40.1818Z" fill="white"/>
<path d="M69.4864 43.0178C69.2189 43.1258 68.9319 43.1778 68.6432 43.1706C68.3594 43.1733 68.0777 43.1225 67.8129 43.021C67.5605 42.9228 67.3337 42.7694 67.1493 42.5722C66.95 42.3545 66.7992 42.0974 66.7069 41.8178C66.5946 41.478 66.5404 41.1219 66.5466 40.7642C66.5404 40.4077 66.5946 40.0526 66.7069 39.7139C66.8 39.4356 66.9507 39.1797 67.1493 38.9627C67.3344 38.7654 67.5609 38.6111 67.8129 38.5107C68.0771 38.4067 68.3591 38.3548 68.6432 38.3579C68.9319 38.3507 69.2189 38.4027 69.4864 38.5107C69.7616 38.6416 70.007 38.8268 70.2077 39.055L69.7364 39.4942C69.5943 39.3265 69.4213 39.1871 69.2267 39.0836C69.0454 39.0029 68.8482 38.9638 68.6496 38.9691C68.4284 38.9634 68.2088 39.0092 68.0085 39.1027C67.8196 39.1944 67.6573 39.3324 67.5372 39.5038C67.4267 39.6604 67.3473 39.8365 67.3032 40.0226C67.2049 40.5111 67.2049 41.0142 67.3032 41.5027C67.3473 41.6898 67.4267 41.8669 67.5372 42.0247C67.6573 42.1961 67.8196 42.3341 68.0085 42.4257C68.2088 42.5193 68.4284 42.5651 68.6496 42.5594C68.8488 42.5642 69.0464 42.5228 69.2267 42.4385C69.4206 42.3326 69.5934 42.1924 69.7364 42.0247L70.2077 42.4735C70.007 42.7017 69.7616 42.8869 69.4864 43.0178Z" fill="white"/>
<path d="M72.8458 43.1133C72.6631 43.1173 72.4817 43.0826 72.3136 43.0114C72.1699 42.9501 72.0417 42.8576 71.9385 42.7409C71.8369 42.6233 71.7596 42.487 71.7109 42.3398C71.6589 42.1827 71.633 42.0182 71.634 41.8528V38.969H71.0377V38.4439H71.634V36.9733H72.3264V38.4439H73.3363V38.969H72.3264V41.8337C72.3154 42.0152 72.37 42.1947 72.4803 42.3398C72.5432 42.4045 72.6199 42.4544 72.7048 42.4858C72.7897 42.5172 72.8806 42.5293 72.9708 42.5212H73.3363V43.1133H72.8458Z" fill="white"/>
<path d="M74.6963 43.1132V42.2156H75.6003V43.1132H74.6963Z" fill="white"/>
<path d="M84.0478 42.0151C83.9171 42.2582 83.7408 42.4743 83.5284 42.6517C83.3178 42.824 83.0779 42.9577 82.82 43.0464C82.5447 43.141 82.2553 43.1883 81.964 43.1864C81.6345 43.1895 81.3076 43.1279 81.0022 43.005C80.7044 42.8846 80.4341 42.706 80.2072 42.4798C80.058 42.3352 79.9335 42.1675 79.8385 41.9833C79.7482 41.7997 79.6835 41.6048 79.6462 41.404C79.6012 41.1645 79.5766 40.9218 79.5724 40.6783C79.5724 40.4077 79.5724 40.0926 79.5724 39.7234C79.5724 39.3541 79.5724 39.0422 79.5724 38.7685C79.5766 38.525 79.6012 38.2822 79.6462 38.0428C79.6835 37.8429 79.7482 37.6491 79.8385 37.4666C79.9335 37.2824 80.058 37.1147 80.2072 36.9701C80.4341 36.7439 80.7044 36.5653 81.0022 36.4449C81.3076 36.322 81.6345 36.2604 81.964 36.2635C82.2551 36.2605 82.5445 36.3068 82.82 36.4004C83.078 36.4902 83.3179 36.6249 83.5284 36.7982C83.7411 36.9753 83.9175 37.1915 84.0478 37.4348C84.1906 37.7029 84.2891 37.992 84.3395 38.291H83.5893C83.5189 37.9052 83.3229 37.553 83.0315 37.2884C82.7358 37.035 82.3544 36.902 81.964 36.916C81.7443 36.9164 81.5266 36.9586 81.3228 37.0401C81.1209 37.1183 80.9382 37.2388 80.7875 37.3934C80.6831 37.4949 80.5955 37.6119 80.5278 37.7404C80.4579 37.8822 80.4093 38.0334 80.3835 38.1892C80.3484 38.3997 80.328 38.6124 80.3226 38.8258C80.3226 39.0709 80.3066 39.3732 80.3066 39.7297C80.3066 40.0862 80.3066 40.3854 80.3226 40.6305C80.328 40.8439 80.3484 41.0566 80.3835 41.2671C80.4093 41.4229 80.4579 41.5741 80.5278 41.7159C80.5954 41.8453 80.683 41.9635 80.7875 42.066C80.9382 42.2207 81.1209 42.3412 81.3228 42.4193C81.5266 42.5009 81.7443 42.543 81.964 42.5435C82.3569 42.5547 82.7402 42.4221 83.0412 42.1711C83.3376 41.9091 83.5374 41.5561 83.6086 41.1684H84.3395C84.2885 41.4643 84.19 41.7502 84.0478 42.0151Z" fill="white"/>
<path d="M89.3373 41.7892C89.264 42.1092 89.1019 42.4026 88.8693 42.6358C88.7008 42.8025 88.5016 42.9354 88.2826 43.0273C87.7877 43.2185 87.2387 43.2185 86.7438 43.0273C86.5247 42.9354 86.3256 42.8025 86.1571 42.6358C86.0394 42.5193 85.941 42.385 85.8654 42.238C85.7917 42.0949 85.7337 41.9445 85.6923 41.7892C85.6497 41.6285 85.6207 41.4645 85.6057 41.299C85.6057 41.1271 85.5801 40.9489 85.5801 40.7642C85.5801 40.5796 85.5801 40.4077 85.6057 40.2327C85.6204 40.065 85.6494 39.8989 85.6923 39.7361C85.7337 39.5808 85.7917 39.4304 85.8654 39.2873C85.9411 39.1413 86.0395 39.0081 86.1571 38.8927C86.3256 38.726 86.5247 38.5931 86.7438 38.5012C87.2387 38.31 87.7877 38.31 88.2826 38.5012C88.5016 38.5931 88.7008 38.726 88.8693 38.8927C89.1019 39.1246 89.2641 39.4169 89.3373 39.7361C89.4826 40.4129 89.4826 41.1124 89.3373 41.7892ZM88.7442 40.3632C88.7381 40.2317 88.722 40.1008 88.6961 39.9717C88.6718 39.8478 88.633 39.7271 88.5807 39.612C88.5301 39.5021 88.4619 39.4011 88.3788 39.3128C88.1472 39.0924 87.8388 38.9693 87.518 38.9693C87.1972 38.9693 86.8888 39.0924 86.6572 39.3128C86.5703 39.3986 86.5006 39.5002 86.4521 39.612C86.4026 39.7282 86.364 39.8485 86.3366 39.9717C86.3071 40.1004 86.2888 40.2314 86.2822 40.3632C86.2822 40.4969 86.2822 40.6306 86.2822 40.7642C86.2822 40.8979 86.2822 41.0316 86.2822 41.1653C86.2888 41.2971 86.3071 41.4281 86.3366 41.5568C86.3645 41.6808 86.4031 41.8023 86.4521 41.9197C86.498 42.032 86.568 42.133 86.6572 42.2157C86.8888 42.4361 87.1972 42.5591 87.518 42.5591C87.8388 42.5591 88.1472 42.4361 88.3788 42.2157C88.464 42.1303 88.5324 42.0299 88.5807 41.9197C88.6326 41.8033 88.6713 41.6816 88.6961 41.5568C88.722 41.4277 88.7381 41.2968 88.7442 41.1653C88.7442 41.0316 88.7442 40.8979 88.7442 40.7642C88.7442 40.6306 88.7442 40.4969 88.7442 40.3632Z" fill="white"/>
<path d="M92.1102 43.1133C91.9402 43.1278 91.7692 43.1028 91.6106 43.0404C91.452 42.978 91.3103 42.8798 91.1965 42.7536C90.9985 42.499 90.8965 42.1838 90.908 41.8623V36.3144H91.6004V41.8337C91.5871 42.0156 91.6344 42.1968 91.7351 42.3493C91.7998 42.4139 91.8785 42.4629 91.9651 42.4927C92.0518 42.5225 92.1442 42.5322 92.2352 42.5212H92.6103V43.1133H92.1102Z" fill="white"/>
<path d="M94.9661 43.1133C94.7961 43.1278 94.6251 43.1028 94.4665 43.0404C94.308 42.978 94.1662 42.8798 94.0524 42.7536C93.8545 42.499 93.7524 42.1838 93.7639 41.8623V36.3144H94.4564V41.8337C94.443 42.0156 94.4903 42.1968 94.591 42.3493C94.6557 42.4139 94.7344 42.4629 94.821 42.4927C94.9077 42.5225 95.0001 42.5322 95.0911 42.5212H95.4662V43.1133H94.9661Z" fill="white"/>
<path d="M99.3235 43.1132V42.6517C99.1584 42.8246 98.957 42.9593 98.7336 43.0464C98.4834 43.1274 98.221 43.1651 97.9578 43.1578C97.687 43.1648 97.4167 43.1304 97.1564 43.056C96.9542 42.9952 96.7703 42.8859 96.621 42.7377C96.5025 42.6167 96.4127 42.471 96.3581 42.3111C96.2964 42.1417 96.265 41.9629 96.2652 41.7828C96.2583 41.5974 96.2923 41.4127 96.3648 41.2417C96.4374 41.0707 96.5467 40.9175 96.6851 40.7929C97.0309 40.5264 97.4635 40.396 97.9001 40.4268H99.3235V39.978C99.3345 39.8369 99.3153 39.695 99.2672 39.5617C99.2192 39.4284 99.1433 39.3067 99.0446 39.2046C98.7763 39.0073 98.4441 38.9155 98.1117 38.9467C97.8656 38.9354 97.6199 38.9755 97.3904 39.0645C97.1993 39.1602 97.0368 39.304 96.9191 39.4815L96.4479 39.0518C96.6258 38.8037 96.8717 38.6114 97.1564 38.4979C97.4661 38.3948 97.7916 38.3463 98.1181 38.3547C98.6267 38.3148 99.1331 38.4546 99.5479 38.7494C99.7086 38.8977 99.8338 39.08 99.9143 39.2827C99.9947 39.4854 100.028 39.7034 100.013 39.9207V43.1037L99.3235 43.1132ZM99.3235 40.9456H97.9963C97.291 40.9456 96.9384 41.2226 96.9384 41.7764C96.9293 41.8905 96.9482 42.0051 96.9934 42.1104C97.0387 42.2157 97.1089 42.3086 97.198 42.3812C97.4458 42.5321 97.7354 42.6012 98.0251 42.5785C98.2175 42.5797 98.4095 42.5637 98.599 42.5308C98.7844 42.4937 98.9536 42.4003 99.0831 42.2634C99.1749 42.1504 99.2434 42.0206 99.2847 41.8813C99.3259 41.7421 99.3391 41.5961 99.3235 41.4517V40.9456Z" fill="white"/>
<path d="M105.437 41.3181C105.421 41.4992 105.393 41.679 105.35 41.856C105.311 42.0261 105.253 42.1915 105.177 42.3493C105.103 42.5019 105.004 42.6407 104.882 42.7599C104.743 42.8938 104.575 42.9959 104.392 43.0591C104.179 43.1353 103.954 43.173 103.728 43.1705C103.482 43.1735 103.238 43.1314 103.007 43.0464C102.76 42.9405 102.547 42.7686 102.391 42.5499V43.1133H101.699V36.3144H102.391V38.9595C102.548 38.7449 102.761 38.5775 103.007 38.4757C103.239 38.3944 103.483 38.3545 103.728 38.3579C103.954 38.3544 104.179 38.391 104.392 38.4661C104.577 38.5351 104.745 38.6438 104.882 38.7844C105.004 38.9036 105.103 39.0425 105.177 39.195C105.253 39.3517 105.311 39.5161 105.35 39.6852C105.393 39.8632 105.421 40.0441 105.437 40.2263C105.453 40.4109 105.459 40.5955 105.459 40.7801C105.459 40.9648 105.453 41.1334 105.437 41.3181ZM104.729 40.1054C104.708 39.9064 104.653 39.7125 104.565 39.5324C104.484 39.369 104.36 39.2304 104.206 39.1314C104.018 39.0217 103.802 38.9686 103.584 38.9786C103.367 38.9685 103.152 39.0216 102.965 39.1314C102.81 39.2302 102.685 39.3688 102.603 39.5324C102.516 39.7129 102.459 39.9065 102.436 40.1054C102.377 40.549 102.377 40.9986 102.436 41.4422C102.459 41.641 102.516 41.8347 102.603 42.0151C102.685 42.1788 102.81 42.3173 102.965 42.4162C103.152 42.526 103.367 42.5791 103.584 42.569C103.802 42.579 104.018 42.5259 104.206 42.4162C104.36 42.3171 104.484 42.1785 104.565 42.0151C104.653 41.835 104.708 41.6412 104.729 41.4422C104.78 40.998 104.78 40.5495 104.729 40.1054Z" fill="white"/>
<path d="M110.447 41.7891C110.374 42.1092 110.212 42.4025 109.979 42.6358C109.811 42.8025 109.612 42.9354 109.393 43.0273C108.898 43.2181 108.349 43.2181 107.854 43.0273C107.636 42.9402 107.437 42.8127 107.267 42.6517C107.149 42.5352 107.051 42.4009 106.975 42.2539C106.902 42.1108 106.844 41.9604 106.802 41.8051C106.76 41.6444 106.731 41.4804 106.716 41.3149C106.7 41.143 106.69 40.9648 106.69 40.7802C106.69 40.5955 106.69 40.4237 106.716 40.2486C106.73 40.081 106.759 39.9149 106.802 39.7521C106.844 39.5968 106.902 39.4463 106.975 39.3033C107.051 39.1572 107.149 39.024 107.267 38.9086C107.436 38.7419 107.635 38.609 107.854 38.5171C108.349 38.3262 108.898 38.3262 109.393 38.5171C109.612 38.609 109.811 38.7419 109.979 38.9086C110.212 39.1405 110.374 39.4329 110.447 39.7521C110.593 40.4288 110.593 41.1283 110.447 41.8051V41.7891ZM109.854 40.3632C109.848 40.2317 109.832 40.1008 109.806 39.9717C109.782 39.8478 109.743 39.7271 109.691 39.612C109.64 39.5021 109.572 39.4011 109.489 39.3128C109.257 39.0924 108.949 38.9693 108.628 38.9693C108.307 38.9693 107.999 39.0924 107.767 39.3128C107.68 39.3986 107.611 39.5002 107.562 39.612C107.513 39.7281 107.474 39.8485 107.447 39.9717C107.417 40.1004 107.399 40.2314 107.392 40.3632C107.392 40.4969 107.392 40.6306 107.392 40.7642C107.392 40.8979 107.392 41.0316 107.392 41.1653C107.399 41.2971 107.417 41.4281 107.447 41.5568C107.474 41.6808 107.513 41.8022 107.562 41.9197C107.608 42.032 107.678 42.133 107.767 42.2157C107.999 42.4361 108.307 42.5591 108.628 42.5591C108.949 42.5591 109.257 42.4361 109.489 42.2157C109.574 42.1303 109.642 42.0299 109.691 41.9197C109.743 41.8033 109.781 41.6816 109.806 41.5568C109.832 41.4277 109.848 41.2968 109.854 41.1653C109.854 41.0316 109.854 40.8979 109.854 40.7642C109.854 40.6306 109.854 40.4969 109.854 40.3632Z" fill="white"/>
<path d="M114.682 39.3128C114.578 39.2025 114.454 39.1119 114.317 39.0454C114.017 38.9377 113.688 38.9446 113.393 39.0645C113.256 39.1256 113.134 39.2171 113.038 39.3319C112.939 39.4512 112.863 39.5871 112.813 39.733C112.757 39.8925 112.729 40.0605 112.73 40.2295V43.1133H112.037V38.4152H112.73V38.9881C112.866 38.7835 113.058 38.6221 113.284 38.5234C113.526 38.4121 113.79 38.3555 114.057 38.3579C114.265 38.3553 114.472 38.3876 114.669 38.4534C114.867 38.5273 115.046 38.6449 115.192 38.7972L114.682 39.3128Z" fill="white"/>
<path d="M118.673 43.1132V42.6517C118.508 42.8246 118.307 42.9593 118.083 43.0464C117.833 43.1274 117.571 43.1651 117.307 43.1578C117.037 43.1648 116.766 43.1304 116.506 43.056C116.304 42.9952 116.12 42.8859 115.971 42.7377C115.852 42.6167 115.762 42.471 115.708 42.3111C115.646 42.1417 115.615 41.9629 115.615 41.7828C115.608 41.5974 115.642 41.4127 115.714 41.2417C115.787 41.0707 115.896 40.9175 116.035 40.7929C116.38 40.5264 116.813 40.396 117.25 40.4268H118.673V39.978C118.684 39.8369 118.665 39.695 118.617 39.5617C118.569 39.4284 118.493 39.3067 118.394 39.2046C118.126 39.0073 117.794 38.9155 117.461 38.9467C117.215 38.9354 116.969 38.9755 116.74 39.0645C116.549 39.1602 116.386 39.304 116.269 39.4815L115.798 39.0518C115.975 38.8037 116.221 38.6114 116.506 38.4979C116.816 38.3948 117.141 38.3463 117.468 38.3547C117.976 38.3148 118.483 38.4546 118.898 38.7494C119.058 38.8977 119.183 39.08 119.264 39.2827C119.344 39.4854 119.378 39.7034 119.362 39.9207V43.1037L118.673 43.1132ZM118.673 40.9456H117.333C116.628 40.9456 116.275 41.2226 116.275 41.7764C116.266 41.8905 116.285 42.0051 116.33 42.1104C116.375 42.2157 116.446 42.3086 116.535 42.3812C116.783 42.5321 117.072 42.6012 117.362 42.5785C117.554 42.5797 117.746 42.5637 117.936 42.5308C118.121 42.4937 118.29 42.4003 118.42 42.2634C118.512 42.1504 118.58 42.0206 118.621 41.8813C118.663 41.7421 118.676 41.5961 118.66 41.4517L118.673 40.9456Z" fill="white"/>
<path d="M122.376 43.1133C122.193 43.1173 122.012 43.0826 121.844 43.0114C121.7 42.9501 121.572 42.8576 121.468 42.7409C121.367 42.6233 121.289 42.487 121.241 42.3398C121.189 42.1827 121.163 42.0182 121.164 41.8528V38.969H120.568V38.4439H121.18V36.9733H121.872V38.4439H122.882V38.969H121.872V41.8337C121.861 42.0152 121.916 42.1947 122.026 42.3398C122.089 42.4045 122.166 42.4544 122.251 42.4858C122.336 42.5172 122.427 42.5293 122.517 42.5212H122.882V43.1133H122.376Z" fill="white"/>
<path d="M124.598 40.9456C124.571 41.3718 124.697 41.7937 124.954 42.1361C125.084 42.2802 125.245 42.3933 125.424 42.4666C125.604 42.5399 125.799 42.5717 125.993 42.5594C126.23 42.567 126.465 42.5224 126.682 42.4289C126.888 42.3264 127.074 42.1897 127.234 42.0247L127.705 42.4353C127.591 42.5477 127.471 42.6539 127.346 42.7536C127.223 42.8395 127.09 42.9121 126.952 42.97C126.81 43.0351 126.66 43.0822 126.506 43.1101C126.327 43.1459 126.144 43.1629 125.961 43.161C125.671 43.1651 125.383 43.1166 125.111 43.0177C124.866 42.924 124.646 42.7734 124.47 42.5785C124.28 42.3594 124.137 42.1037 124.05 41.8273C123.946 41.4793 123.897 41.1176 123.903 40.7547C123.863 40.1207 124.046 39.4927 124.422 38.9786C124.603 38.7815 124.822 38.6236 125.068 38.5151C125.313 38.4065 125.578 38.3495 125.846 38.3477C126.114 38.3459 126.38 38.3994 126.627 38.5046C126.873 38.6099 127.095 38.7648 127.279 38.9595C127.641 39.4361 127.821 40.0247 127.788 40.621V40.9393L124.598 40.9456ZM127.08 40.1817C127.08 40.1117 127.08 40.048 127.057 39.9907C127.048 39.9338 127.035 39.8775 127.019 39.8221C127.019 39.7679 126.98 39.7106 126.955 39.647C126.868 39.4345 126.717 39.2542 126.522 39.1313C126.32 39.0074 126.086 38.9418 125.849 38.9418C125.611 38.9418 125.378 39.0074 125.175 39.1313C124.981 39.2542 124.829 39.4345 124.743 39.647C124.696 39.7579 124.661 39.8731 124.637 39.9907C124.614 40.1361 124.601 40.2829 124.598 40.43H127.099C127.093 40.3345 127.086 40.2518 127.08 40.1817Z" fill="white"/>
<path d="M129.243 43.1133V42.2157H130.157V43.1133H129.243Z" fill="white"/>
<path d="M138.597 42.0151C138.464 42.2569 138.288 42.4726 138.078 42.6517C137.867 42.8234 137.627 42.957 137.369 43.0464C137.094 43.141 136.805 43.1883 136.513 43.1864C136.184 43.1891 135.857 43.1275 135.552 43.005C135.255 42.8838 134.986 42.7053 134.76 42.4798C134.61 42.3352 134.484 42.1675 134.388 41.9833C134.3 41.799 134.237 41.6043 134.199 41.404C134.152 41.1648 134.128 40.9219 134.125 40.6783C134.125 40.4077 134.125 40.0926 134.125 39.7234C134.125 39.3541 134.125 39.0422 134.125 38.7685C134.128 38.5249 134.152 38.282 134.199 38.0428C134.237 37.8434 134.3 37.6498 134.388 37.4666C134.484 37.2824 134.61 37.1147 134.76 36.9701C134.986 36.7446 135.255 36.5661 135.552 36.4449C135.857 36.3224 136.184 36.2608 136.513 36.2635C136.804 36.2605 137.094 36.3068 137.369 36.4004C137.627 36.4909 137.867 36.6256 138.078 36.7982C138.289 36.9771 138.465 37.1929 138.597 37.4348C138.74 37.7029 138.838 37.992 138.889 38.291H138.139C138.068 37.9052 137.872 37.553 137.581 37.2884C137.285 37.035 136.904 36.902 136.513 36.916C136.294 36.9168 136.076 36.9589 135.872 37.0401C135.671 37.1183 135.49 37.2389 135.34 37.3934C135.236 37.4949 135.148 37.6119 135.08 37.7404C135.01 37.8822 134.962 38.0334 134.936 38.1892C134.9 38.3996 134.878 38.6123 134.872 38.8258C134.872 39.0709 134.872 39.3732 134.872 39.7297C134.872 40.0862 134.872 40.3854 134.872 40.6305C134.878 40.8439 134.9 41.0567 134.936 41.2671C134.962 41.4229 135.01 41.5741 135.08 41.7159C135.148 41.8453 135.236 41.9635 135.34 42.066C135.49 42.2206 135.671 42.3411 135.872 42.4193C136.076 42.5005 136.294 42.5426 136.513 42.5435C136.906 42.5547 137.29 42.4221 137.591 42.1711C137.887 41.9091 138.087 41.5561 138.158 41.1684H138.889C138.838 41.4643 138.739 41.7502 138.597 42.0151Z" fill="white"/>
<path d="M143.024 39.3128C142.92 39.2025 142.796 39.1119 142.659 39.0454C142.36 38.9377 142.03 38.9445 141.736 39.0645C141.598 39.1256 141.476 39.2171 141.38 39.3319C141.281 39.4511 141.203 39.5869 141.152 39.7329C141.097 39.8927 141.07 40.0606 141.072 40.2295V43.1133H140.38V38.4152H141.072V38.9881C141.207 38.7839 141.399 38.6226 141.623 38.5234C142.06 38.3299 142.554 38.305 143.008 38.4534C143.208 38.5272 143.387 38.6447 143.534 38.7972L143.024 39.3128Z" fill="white"/>
<path d="M144.534 40.9457C144.507 41.3718 144.633 41.7937 144.89 42.1361C145.02 42.2803 145.18 42.3933 145.36 42.4667C145.54 42.54 145.735 42.5717 145.929 42.5595C146.164 42.5666 146.399 42.522 146.615 42.4289C146.822 42.3274 147.01 42.1906 147.17 42.0247L147.641 42.4353C147.527 42.5477 147.407 42.654 147.282 42.7536C147.163 42.8428 147.035 42.9186 146.9 42.9796C146.758 43.0441 146.608 43.0911 146.455 43.1197C146.275 43.1556 146.093 43.1727 145.91 43.1706C145.619 43.1747 145.33 43.1261 145.057 43.0273C144.811 42.9339 144.591 42.7833 144.416 42.5881C144.224 42.3704 144.082 42.1142 143.999 41.8369C143.891 41.4898 143.84 41.1275 143.848 40.7643C143.808 40.1303 143.992 39.5023 144.368 38.9882C144.548 38.7911 144.768 38.6332 145.013 38.5247C145.258 38.4161 145.523 38.3591 145.792 38.3573C146.06 38.3555 146.326 38.4089 146.572 38.5142C146.819 38.6195 147.041 38.7744 147.224 38.9691C147.586 39.4457 147.767 40.0343 147.734 40.6306V40.9489L144.534 40.9457ZM147.016 40.1818C147.011 40.1176 147.003 40.0539 146.99 39.9908C146.981 39.9339 146.968 39.8775 146.952 39.8221C146.936 39.768 146.916 39.7107 146.891 39.647C146.804 39.4345 146.653 39.2542 146.458 39.1314C146.255 39.0075 146.022 38.9418 145.785 38.9418C145.547 38.9418 145.314 39.0075 145.111 39.1314C144.916 39.2542 144.765 39.4345 144.679 39.647C144.632 39.758 144.597 39.8731 144.573 39.9908C144.55 40.1361 144.537 40.2829 144.534 40.43H147.035C147.028 40.3346 147.022 40.2518 147.016 40.1818Z" fill="white"/>
<path d="M151.883 43.1133V42.6518C151.717 42.8248 151.515 42.9595 151.29 43.0465C151.041 43.1275 150.78 43.1652 150.518 43.1579C150.246 43.1648 149.974 43.1304 149.713 43.056C149.511 42.9958 149.328 42.8864 149.181 42.7377C149.061 42.6169 148.97 42.4712 148.915 42.3112C148.854 42.1416 148.824 41.9628 148.825 41.7828C148.818 41.5976 148.851 41.4131 148.923 41.2421C148.995 41.0712 149.104 40.9179 149.242 40.7929C149.589 40.5265 150.022 40.3962 150.46 40.4269H151.883V39.9781C151.894 39.8369 151.875 39.6951 151.827 39.5618C151.779 39.4285 151.703 39.3068 151.604 39.2046C151.336 39.0073 151.004 38.9155 150.671 38.9468C150.425 38.9354 150.18 38.9755 149.95 39.0646C149.759 39.1603 149.597 39.304 149.479 39.4815L149.008 39.0518C149.187 38.8101 149.431 38.6236 149.713 38.5139C150.023 38.4111 150.348 38.3627 150.675 38.3707C151.182 38.3307 151.688 38.4706 152.101 38.7654C152.263 38.9134 152.388 39.0955 152.469 39.2982C152.55 39.5009 152.584 39.7191 152.569 39.9367V43.1197L151.883 43.1133ZM151.883 40.9457H150.556C149.851 40.9457 149.498 41.2226 149.498 41.7764C149.489 41.8906 149.508 42.0052 149.553 42.1105C149.598 42.2158 149.669 42.3087 149.758 42.3812C150.006 42.5321 150.295 42.6012 150.585 42.5786C150.776 42.5797 150.967 42.5637 151.156 42.5308C151.342 42.4938 151.512 42.4004 151.643 42.2634C151.735 42.1505 151.803 42.0207 151.844 41.8814C151.886 41.7421 151.899 41.5961 151.883 41.4518V40.9457Z" fill="white"/>
<path d="M155.586 43.1133C155.402 43.117 155.22 43.0823 155.05 43.0114C154.907 42.9501 154.778 42.8576 154.675 42.7409C154.575 42.6231 154.498 42.4868 154.451 42.3398C154.399 42.1827 154.373 42.0182 154.374 41.8528V38.969H153.778V38.4439H154.374V36.9733H155.066V38.4439H156.076V38.969H155.066V41.8337C155.055 42.0152 155.11 42.1947 155.22 42.3398C155.283 42.4045 155.36 42.4544 155.445 42.4858C155.53 42.5172 155.621 42.5293 155.711 42.5212H156.076V43.1133H155.586Z" fill="white"/>
<path d="M157.807 40.9457C157.78 41.3718 157.906 41.7937 158.163 42.1361C158.293 42.2803 158.454 42.3933 158.633 42.4667C158.813 42.54 159.008 42.5717 159.202 42.5595C159.438 42.5666 159.672 42.522 159.888 42.4289C160.095 42.3266 160.282 42.1899 160.443 42.0247L160.914 42.4353C160.8 42.5486 160.679 42.6549 160.552 42.7536C160.434 42.8427 160.308 42.9185 160.173 42.9796C160.03 43.0447 159.879 43.0918 159.725 43.1197C159.546 43.1557 159.365 43.1727 159.183 43.1706C158.892 43.1747 158.603 43.1261 158.33 43.0273C158.084 42.9339 157.864 42.7833 157.689 42.5881C157.497 42.3698 157.354 42.1138 157.269 41.8369C157.163 41.4892 157.114 41.1273 157.121 40.7643C157.081 40.1303 157.265 39.5023 157.641 38.9882C157.821 38.7911 158.041 38.6332 158.286 38.5247C158.531 38.4161 158.796 38.3591 159.065 38.3573C159.333 38.3555 159.599 38.4089 159.845 38.5142C160.092 38.6195 160.314 38.7744 160.497 38.9691C160.859 39.4457 161.04 40.0343 161.007 40.6306V40.9489L157.807 40.9457ZM160.289 40.1818C160.289 40.1117 160.273 40.0481 160.263 39.9908C160.254 39.9339 160.241 39.8775 160.225 39.8221C160.209 39.768 160.189 39.7107 160.164 39.647C160.077 39.4345 159.926 39.2542 159.731 39.1314C159.529 39.0075 159.295 38.9418 159.058 38.9418C158.82 38.9418 158.587 39.0075 158.384 39.1314C158.19 39.2542 158.038 39.4345 157.952 39.647C157.905 39.758 157.87 39.8731 157.846 39.9908C157.823 40.1361 157.81 40.2829 157.807 40.43H160.308C160.297 40.3346 160.292 40.2518 160.292 40.1818H160.289Z" fill="white"/>
</g>
<defs>
<clipPath id="clip0_291_68">
<rect width="161" height="58" fill="white"/>
</clipPath>
</defs>
</svg>
