<svg width="40" height="33" viewBox="0 0 40 33" fill="none" xmlns="http://www.w3.org/2000/svg">
<path d="M19.8121 0.250015C13.6288 0.250015 5.60326 1.79928 5.60326 1.79928L5.58307 1.82236C2.76686 2.27276 0.609253 4.6927 0.609253 7.63572V16.4986V16.5015V25.3614V25.3643C0.612001 26.7699 1.11572 28.1284 2.02996 29.196C2.94421 30.2636 4.20909 30.9703 5.59749 31.1892L5.60326 31.1979C5.60326 31.1979 13.6288 32.75 19.8121 32.75C25.9954 32.75 34.0209 31.1979 34.0209 31.1979L34.0238 31.195C35.4137 30.9765 36.68 30.2692 37.595 29.2004C38.5099 28.1315 39.0135 26.7713 39.0149 25.3643V25.3614V16.5015V16.4986V7.63572C39.0129 6.22967 38.5095 4.87045 37.5952 3.80226C36.6809 2.73407 35.4156 2.02695 34.0267 1.80794L34.0209 1.79928C34.0209 1.79928 25.9954 0.250015 19.8121 0.250015ZM15.3807 9.70142L27.1978 16.4986L15.3807 23.2957V9.70142Z" fill="white"/>
</svg>
